<?xml version="1.0" encoding="utf-8" ?>
<svg baseProfile="full" height="300mm" version="1.1" viewBox="0,0,200,300" width="200mm" xmlns="http://www.w3.org/2000/svg" xmlns:ev="http://www.w3.org/2001/xml-events" xmlns:xlink="http://www.w3.org/1999/xlink"><defs /><rect fill="#222222" height="300" width="200" x="0" y="0" /><text fill="#FFFFFF" style="font-size:12px; font-family:Arial; font-weight:bold;" x="10" y="20">Over 3km Runs</text><text fill="#FFFFFF" style="font-size:4px; font-family:Arial" x="10" y="280">ATHLETE</text><text fill="#FFFFFF" style="font-size:9px; font-family:Arial" x="10" y="290">Alex</text><text fill="#FFFFFF" style="font-size:4px; font-family:Arial" x="65" y="280">SPECIAL TRACKS</text><rect fill="yellow" height="2.6" width="2.6" x="65" y="283" /><text fill="#FFFFFF" style="font-size:3px; font-family:Arial" x="70" y="285.5">Over 20.0 km</text><rect fill="red" height="2.6" width="2.6" x="65" y="287" /><text fill="#FFFFFF" style="font-size:3px; font-family:Arial" x="70" y="289.5">Over 40.0 km</text><text fill="#FFFFFF" style="font-size:4px; font-family:Arial" x="120" y="280">STATISTICS</text><text fill="#FFFFFF" style="font-size:3px; font-family:Arial" x="120" y="285">Number: 6</text><text fill="#FFFFFF" style="font-size:3px; font-family:Arial" x="120" y="290">Weekly: 1.0</text><text fill="#FFFFFF" style="font-size:3px; font-family:Arial" x="141" y="285">Total: 38.3 km</text><text fill="#FFFFFF" style="font-size:3px; font-family:Arial" x="141" y="290">Avg: 6.4 km</text><text fill="#FFFFFF" style="font-size:3px; font-family:Arial" x="167" y="285">Min: 3.0 km</text><text fill="#FFFFFF" style="font-size:3px; font-family:Arial" x="167" y="290">Max: 10.0 km</text><polyline fill="none" points="122.91144431335852,115.06533556216164 122.37021442945115,116.19333591108443 122.3160914410837,117.82266609714134 122.64082937128842,119.76532337191748 122.91144431335852,122.08397079864517 123.01969029009342,125.65592405817006 123.18205925519578,128.09988012880785 123.83153511583805,130.91981737781316 126.15882361656986,131.04514762206236 126.32119258167222,130.98248250305187 124.26451902301051,131.42113820213126 124.15627304604277,133.0504280604655 123.8856581042055,134.99303725233767 124.42688798811287,138.1262649599812 124.64337994158268,141.76078911178047 124.85987189505249,142.76341268554097 125.02224086038768,144.45533626165707 125.18460982549004,145.45795544493012 125.40110177919269,147.02454464766197 125.45522476732731,149.28042609232944 125.6175937326625,150.5336899877875 125.94233166286722,153.6041757435887 126.05057763960212,155.98535823001293 126.5376845349092,158.5545184725197 127.83663625642657,162.06359805807006 128.9190960242413,163.69280677760253 129.78506383812055,162.81554107996635 130.65103165246546,162.50223159923917 129.24383395444602,164.3820860910928 130.05567878019065,165.38467280531768 131.62524544307962,167.01387273170985 134.00665693241172,169.01903595059412 134.92674773489125,169.33234211342642 135.95508451433852,168.5804070548038 137.95763508439995,167.01387273170985 137.36228221212514,167.45250274433056 135.0891166999936,169.2696808935725 134.06077992054634,169.1443584349472 133.08656612969935,168.14177784638014 135.95508451433852,170.58556516922545 137.79526611906476,172.34007315937197 140.66378450370394,174.7211831448949 143.04519599257037,176.78898171026958 144.93950058612972,178.1048499069293 147.15854311012663,180.17263710248517 150.08118448290043,182.61637664865702 152.0296120645944,183.93223238480277 154.8440074606333,186.0 156.6841890658252,184.43351002049167 158.47024768218398,181.86445782193914 159.985691357404,179.85933645896148 162.20473388093524,177.03962348838104 163.17894767201506,176.3503583528218 164.6943913467694,177.03962348838104 166.9134338707663,178.1048499069293 169.24072237103246,179.60869582917076 171.29739592969418,181.92711775918724 172.1633637440391,182.11509753303835 173.89529937203042,182.11509753303835 175.46486603538506,182.80435621191282 176.60144879156724,182.61637664865702 177.46741660591215,181.67647797171958 177.79215453588404,179.358055097342 177.73803154751658,175.6610924451379 176.8720637334045,174.21989759791177 175.78960396558978,173.84393316955538 173.89529937203042,174.78384380950592 173.57056144205853,177.9795292476192 173.51643845369108,179.17007448151708 173.89529937203042,181.67647797171958 175.1401281049475,182.74169636389706 177.2509246522095,182.05243761470774 177.79215453588404,179.79667631100165 177.68390855938196,177.4782463547308 177.68390855938196,175.41045010543894 176.81794074480422,174.15723687573336 175.08600511681288,173.84393316955538 174.05766833759844,174.47054042236414 173.57056144205853,175.5984318696428 173.67880741879344,179.29539489833405 173.67880741879344,180.54859766433947 173.89529937203042,181.67647797171958 174.70714419800788,182.55371678160736 176.22258787276223,182.74169636389706 177.46741660591215,181.6138180088019 177.73803154751658,179.2327346933307 177.73803154751658,175.8490741327987 177.46741660591215,174.7211831448949 175.95197293092497,173.84393316955538 174.32828327920288,174.28255831357092 173.62468443019316,175.78641357662855 173.67880741879344,177.5409067387227 173.67880741879344,178.79411307745613 173.67880741879344,181.11253807647154 175.08600511681288,182.67903650936205 176.54732580296695,182.55371678160736 177.73803154751658,180.79923791141482 177.79215453588404,177.41558596427785 177.5756625821814,175.0344864045619 175.78960396558978,173.78127240925096 174.65302120964043,174.09457614726853 173.8411763838958,174.9091651197523 173.67880741879344,177.16494433936896 173.67880741879344,180.48593758663628 173.78705339552835,181.6138180088019 175.30249707004987,182.67903650936205 176.3849568378646,182.61637664865702 177.52153959404677,181.5511580397142 177.79215453588404,179.17007448151708 177.68390855938196,175.2851288972888 177.08855568687432,174.34521902282722 176.16846488439478,173.84393316955538 175.03188212844543,173.90659392351517 173.8411763838958,174.9091651197523 173.62468443019316,177.03962348838104 173.67880741879344,180.61125773569802 173.89529937203042,181.67647797171958 175.1942510935478,182.67903650936205 176.70969476830214,182.49105690798024 177.62978557078168,181.30051809898578 177.79215453588404,177.916868908389 177.68390855938196,175.2851288972888 176.22258787276223,173.84393316955538 175.08600511681288,173.90659392351517 174.05766833759844,174.5958617965225 173.62468443019316,175.78641357662855 173.67880741879344,179.67135599610629 173.89529937203042,181.48849806399085 174.65302120964043,182.30307724920567 175.84372695419006,182.67903650936205 176.8720637334045,182.4283970281831 177.79215453588404,180.8618979571038 177.79215453588404,176.53833983000368 177.46741660591215,174.78384380950592 176.54732580296695,173.96925467118854 175.41074304725043,173.78127240925096 174.32828327920288,174.34521902282722 173.67880741879344,175.34778950444888 173.62468443019316,178.8567733275122 174.16591431410052,181.98977769026533 175.73548097722232,182.74169636389706 177.3591706289444,181.98977769026533 177.84627752448432,179.79667631100165 177.79215453588404,175.91173468274064 177.41329361731187,174.7211831448949 176.33083384949714,173.84393316955538 175.03188212844543,173.90659392351517 173.7329304071609,175.15980766358553 173.67880741879344,178.8567733275122 173.67880741879344,180.6739178005373 174.22003730246797,181.98977769026533 175.30249707004987,182.61637664865702 176.81794074480422,182.49105690798024 177.73803154751658,181.0498780562193 177.79215453588404,178.1675102271256 177.62978557078168,175.2851288972888 177.14267867524177,174.28255831357092 176.06021890765987,173.78127240925096 174.92363615171053,173.90659392351517 173.7329304071609,175.09714703733334 173.67880741879344,178.04218958044657 173.7329304071609,179.67135599610629 173.8411763838958,181.42583808209747 174.97775913984515,182.61637664865702 176.60144879156724,182.55371678160736 177.5756625821814,181.5511580397142 177.79215453588404,178.29283084830968 177.79215453588404,175.6610924451379 177.3591706289444,174.53320111264475 176.33083384949714,173.84393316955538 174.43652925617062,174.15723687573336 173.7329304071609,177.22760475514224 173.67880741879344,180.61125773569802 174.27416029106826,182.1777574447333 176.33083384949714,182.74169636389706 177.68390855938196,181.42583808209747 177.84627752448432,177.66622748732334 177.52153959404677,174.84650446788874 176.6555717799347,173.96925467118854 174.8153901747428,173.96925467118854 173.8411763838958,174.78384380950592 173.7329304071609,177.29026516451268 173.7329304071609,179.67135599610629 173.7329304071609,180.8618979571038 174.70714419800788,182.36573714198312 176.43907982646488,182.61637664865702 177.3591706289444,181.80179787817178 177.90040051285177,179.85933645896148 177.79215453588404,176.28769784775795 177.73803154751658,175.09714703733334 175.6813579890877,173.71861164242728 174.43652925617062,174.09457614726853 173.67880741879344,175.2224682837259 173.62468443019316,177.85420856252313 173.62468443019316,180.17263710248517 174.16591431410052,182.05243761470774 175.24837408191524,182.61637664865702 176.70969476830214,182.55371678160736 177.73803154751658,181.0498780562193 177.90040051285177,177.79154821060365 177.68390855938196,175.09714703733334 176.9261867220048,174.03191541240085 175.73548097722232,173.71861164242728 174.05766833759844,174.47054042236414 173.62468443019316,175.78641357662855 173.62468443019316,179.67135599610629 173.89529937203042,181.5511580397142 175.30249707004987,182.67903650936205 176.8720637334045,182.4283970281831 177.79215453588404,180.42327750270488 177.73803154751658,175.91173468274064 176.9261867220048,174.09457614726853 174.92363615171053,173.78127240925096 173.57056144205853,175.41045010543894 173.57056144205853,177.10228391707642 173.7329304071609,178.73145282117184 173.62468443019316,180.8618979571038 173.40819247672334,181.6138180088019 172.05511776707135,182.1777574447333 170.64792006928474,181.11253807647154 169.56546030123718,179.60869582917076 167.6170327195432,178.5434720138437 165.50623617274687,177.03962348838104 164.0990384744946,176.22503733611666 162.31297985790297,176.78898171026958 160.52692124107853,179.04475403897231 159.49858446186408,180.7365778592066 157.0630499846302,183.80691291228868 155.27699136780575,185.87468094856013 153.81567068141885,185.31074490043102 152.46259597176686,184.18287125386996 150.5682913782075,182.99233571765944 148.6198637962807,181.5511580397142 146.72555920295417,180.04731686442392 145.967837365577,178.91943357081618 143.91116380691528,177.5409067387227 140.82615346903913,174.9091651197523 138.1200040495023,172.5280558617087 137.14579025865532,171.4628197896527 134.7102557811886,169.39500332676107 132.65358222275972,167.57782554760342 129.83918682672083,165.07136463263305 128.5402351054363,163.25417408521753 126.91654545394704,159.80776347900974 126.26706959307194,156.3613335698028 125.99645465123467,154.48145457386272 126.42943855840713,153.5415129220928 125.94233166286722,151.97494031186216 125.50934775592759,149.71906874608248 125.18460982549004,147.27519854996353 124.91399488365278,145.52061908954056 124.69750292995013,141.76078911178047 124.48101097671315,139.56754434772301 124.42688798811287,138.56491556577384 123.93978109280579,134.8677078121109 123.83153511583805,131.9224586180062 123.39855120889843,129.16519127530046 123.23618224379607,126.21991478226846 122.85732132475823,125.15459853585344 122.91144431335852,122.33463486179244 122.64082937128842,118.69999594864203 122.26196845271625,116.2560025366256 122.15372247598134,114.0 122.37021442945115,116.00533599674236" stroke="#4DD2FF" stroke-linecap="round" stroke-linejoin="round" stroke-width="0.5"><title>2025-02-24 10.0km</title><desc>9223370296456671807</desc></polyline><polyline fill="none" points="25.069109585136175,194.0 24.56186868180521,194.11746245983522 24.20680004893802,194.46984969591722 24.003903687698767,194.4111185047659 24.05462777800858,196.58416858885903 24.409696410642937,199.22705630213022 24.358972320100293,202.3985055674566 24.663316862424836,205.511207328178 24.86621322389692,207.27310653752647 25.221281856298447,208.03659452305874 25.627074579242617,209.91594525717665 25.52562639862299,213.5571698740241 25.728522760095075,214.84921179164667 25.93141912133433,218.6078627271927 26.33721184451133,221.01573560811812 26.438660025130957,222.19030409655534 26.641556386603042,224.77434634952806 27.098073200089857,228.2980216703727 27.250245471019298,230.1773063709261 27.656038193963468,232.8787673986517 28.36617545899935,235.81512372737052 29.380657266359776,237.98801778507186 30.445863164030015,239.45618481107522 32.37337859789841,241.7465179079445 33.43858449533582,242.3925076497835 35.011031296802685,243.91938961745473 35.822616742691025,243.74321113538463 37.039994911523536,245.21136350982124 39.42402715864591,247.85402836534195 41.50371486367658,249.6745237771538 42.87326530367136,250.90775933960686 44.59788437606767,251.96481629437767 46.576123900013044,253.66784842399647 49.670293412404135,256.31047453108476 51.85142929805443,258.30711733730277 54.13401336455718,259.71650809794664 55.9093565272633,260.7735489081242 57.63397559965961,261.7718634500634 60.423800569958985,263.2986941130366 62.75710872653872,264.29700428427896 63.8730387147516,264.88424475409556 65.90200232923962,266.0 68.18458639574237,264.2382802043576 68.74255138961598,261.36079296557 68.74255138961598,257.4849711365532 68.79327548015863,256.48664917447604 70.41644637170248,256.1930247391574 72.03961726347916,256.134299834026 74.0178567878902,256.7215486150235 75.13378677563742,256.1930247391574 75.84392404090613,253.90274901257362 75.69175176974386,250.20305362687213 75.18451086594723,248.91109091695398 73.40916770324111,248.323834183102 72.3439618058037,248.91109091695398 71.78599681146443,251.20138646586565 71.83672090200707,254.84235041082138 72.24251362495124,256.0168500060099 73.20627134176902,256.6628237639088 74.47437360091135,256.60409890679875 75.64102767920122,255.42960050754482 75.7424758602865,253.60912326176185 75.69175176974386,252.0235416238429 75.69175176974386,249.6157982085133 74.37292542005889,248.38255988346646 72.59758225735277,248.67618829524145 71.88744499254972,249.6157982085133 71.78599681146443,252.78697036392987 71.78599681146443,255.1947005406255 72.44540998642333,256.1930247391574 74.11930496850982,256.7215486150235 75.13378677563742,256.2517496381188 75.7424758602865,254.78362536831992 75.7424758602865,251.1426610526396 75.48885540827177,249.32217027497245 74.11930496850982,248.26510847680038 72.8512027093675,248.50001126603456 71.98889317316934,249.38089587370632 71.73527272115462,252.1997175766155 71.88744499254972,255.1947005406255 72.49613407673314,256.134299834026 74.0178567878902,256.6628237639088 74.72799405292608,256.48664917447604 75.69175176974386,254.90107544750208 75.69175176974386,253.78529873030493 75.7424758602865,250.37923013587715 75.03233859501779,248.7936396182049 73.40916770324111,248.38255988346646 72.29323771549389,248.85236527060624 71.78599681146443,251.67118955677142 71.88744499254972,255.01852550264448 72.49613407673314,256.1930247391574 73.45989179355092,256.6628237639088 74.62654587230645,256.5453740435187 75.38740722741932,255.7819502784405 75.7424758602865,253.4916729197139 75.64102767920122,249.90942599246046 75.18451086594723,248.91109091695398 73.71351224556565,248.26510847680038 72.64830634766258,248.55873694847105 71.9381690826267,249.49834705307148 71.83672090200707,251.20138646586565 71.83672090200707,254.43127498746617 72.39468589611351,256.0168500060099 73.96713269734755,256.6628237639088 74.93089041416533,256.31047453108476 75.59030358912423,255.42960050754482 75.69175176974386,252.0235416238429 75.64102767920122,249.7919748967979 75.13378677563742,248.7936396182049 74.17002905881964,248.323834183102 73.00337498029694,248.38255988346646 71.83672090200707,249.90942599246046 71.83672090200707,252.1997175766155 71.83672090200707,255.13597553380532 72.90192679967731,256.48664917447604 74.52509769122116,256.60409890679875 75.33668313734233,255.7819502784405 75.64102767920122,253.02187131159008 75.69175176974386,250.08560259098886 75.0830626853276,248.73491395963356 73.76423633587547,248.26510847680038 72.64830634766258,248.55873694847105 71.88744499254972,249.49834705307148 71.83672090200707,251.90609095885884 71.88744499254972,255.37087552476441 72.54685816704296,256.1930247391574 73.61206406494603,256.6628237639088 74.67726996238343,256.5453740435187 75.53957949881442,255.31215053598862 75.64102767920122,251.61246419133386 75.43813131796196,249.2634446703596 74.11930496850982,248.20638276456157 72.49613407673314,248.67618829524145 71.78599681146443,249.6157982085133 71.83672090200707,252.9631460835808 71.88744499254972,255.37087552476441 73.05409907083958,256.48664917447604 74.5758217817638,256.5453740435187 75.48885540827177,255.4883254841552 75.7424758602865,252.9631460835808 75.69175176974386,250.43795562681044 74.67726996238343,248.4412855777773 73.05409907083958,248.26510847680038 71.88744499254972,249.49834705307148 71.83672090200707,252.90442084980896 71.88744499254972,255.13597553380532 72.64830634766258,256.31047453108476 73.61206406494603,256.6628237639088 74.67726996238343,256.48664917447604 75.59030358912423,255.31215053598862 75.64102767920122,251.96481629437767 75.53957949881442,249.6157982085133 74.06858087820001,248.20638276456157 72.29323771549389,248.7936396182049 71.78599681146443,250.1443281120155 71.88744499254972,253.90274901257362 72.14106544433162,255.66450037871255 73.86568451672792,256.7215486150235 75.18451086594723,255.9581250831252 75.69175176974386,255.13597553380532 75.64102767920122,252.25844288250664 75.59030358912423,251.20138646586565 75.38740722741932,249.02854219207074 73.3584436129313,248.20638276456157 71.9381690826267,249.2634446703596 71.83672090200707,253.25677216344047 71.83672090200707,254.95980047812918 72.95265088998713,256.427924299438 74.32220132974908,256.6628237639088 75.64102767920122,255.1947005406255 75.69175176974386,253.78529873030493 75.69175176974386,251.43628805910703 75.38740722741932,249.02854219207074 74.17002905881964,248.20638276456157 72.59758225735277,248.50001126603456 71.83672090200707,249.73324934008997 71.88744499254972,253.78529873030493 71.78599681146443,254.72490031976486 72.95265088998713,256.48664917447604 74.27147723943926,256.60409890679875 75.59030358912423,255.42960050754482 75.84392404090613,251.96481629437767 76.04682040214539,250.73158299236093 75.94537222152576,249.2634446703596 68.69182729930617,255.89940015412867 68.74255138961598,257.36752158380114 68.64110320899636,258.1896679518977 68.74255138961598,259.5403344411752 68.43820684729144,263.18124574399553 67.11938049830496,264.7080726760905 66.35851914272644,265.29531272751046 65.64838187769055,265.94127609365387 62.50348827475682,264.003383824951 59.25714649143629,262.53527928655967 57.38035514811054,261.5369660661672 55.75718425633386,260.36247771198396 53.77894473215565,259.5403344411752 51.141292033018544,257.1326224061777 49.21377659891732,255.9581250831252 46.62684799032286,253.9614741447731 44.64860846637748,252.08226694737095 43.38050620723516,251.02521020796848 41.55443895398639,249.85070044751046 40.84430168871768,248.91109091695398 39.221130796941,247.38422216498293 36.17768537509255,244.74155515659368 34.8081349353306,243.80193730193423 32.170482236426324,241.33543315011775 30.09079453139566,239.04509842052357 28.822692272486165,236.87220834568143 27.858934555435553,234.11203887755983 27.199521380709484,230.41221652785316 27.40241774194874,229.2963924301439 26.844452748075128,227.1821934815962 26.59083229629323,223.65851134248078 26.438660025130957,222.4839458448114 26.18503957358189,220.48717900767224 25.880695031257346,216.90472705755383 25.627074579242617,215.61268974578707 25.322730037150905,211.442913218576 25.474902308313176,209.56356746103847 25.170557766221464,208.33024347899482 24.86621322389692,207.44929616240552" stroke="#4DD2FF" stroke-linecap="round" stroke-linejoin="round" stroke-width="0.5"><title>2025-02-17 8.9km</title><desc>9223370297062089807</desc></polyline><polyline fill="none" points="124.57110490114428,194.0 124.21545601869002,194.23530873586424 123.96142110251822,195.8824672033661 124.26626300183125,197.17665984638734 124.26626300183125,198.35319609596627 124.41868395148776,200.23564910987625 124.26626300183125,201.64748484356096 124.469490934629,202.29457506822655 124.57110490114428,204.11818907299312 124.77433283394203,206.00062329613138 124.67271886742674,206.7065345479641 124.77433283394203,207.29479326540604 125.28240266628563,208.05952870252077 125.33320964942686,207.94187716254964 125.33320964942686,208.0007029355038 125.73966551502235,210.29490340448683 125.38401663256809,211.76553993753623 125.53643758245744,212.4714441433316 125.68885853188112,213.76559961301973 125.99370043119416,215.0009271291783 126.14612138085067,217.00097560096765 126.14612138085067,218.70689382450655 126.14612138085067,219.94221077207476 126.34934931388125,220.58928049978567 126.55257724644616,222.53048533335095 126.65419121272862,223.23637638258515 126.65419121272862,223.82461826439248 126.80661216261797,224.35403544607107 126.70499819610268,224.9422761896858 126.95903311204165,226.7658186883782 127.21306802821346,228.76582642173162 127.26387501158752,230.58935684891185 127.31468199472874,231.35406144394074 127.7719448436983,233.29523009964032 127.97517277649604,234.58933891286142 128.5848565751221,236.1775594027131 129.44857528968714,237.94224371406017 130.15987305459566,238.94222909759264 130.4647149539087,239.47163242322858 131.53166160173714,240.88337225309806 132.39538031606935,241.64806322031654 132.7510291985236,242.05981947568944 133.86878282949328,242.94215332035674 134.63088757777587,243.82448581710923 135.3421853426844,244.11859635001747 135.7486412085127,244.11859635001747 136.61235992307775,245.2362150088884 137.98414846975356,246.6479407506995 139.50835796631873,247.8831979446113 140.98176047950983,249.05963091162266 141.79467221093364,249.8831325629726 142.15032109362073,250.118418533355 143.42049567378126,251.3536683061393 144.33502137172036,252.00070284726098 144.8938981872052,252.2359879554715 146.4181076833047,253.41241205809638 147.2310194147285,254.41237066150643 148.7044219279196,255.6476112526143 150.12701745820232,256.824028407631 151.14315712219104,257.6475189909106 152.81978756841272,258.647470263415 154.2423830984626,259.6474198055803 154.95368086337112,259.76506081427215 156.7319252761081,260.8826492030639 157.2908020913601,261.2355714029982 157.49403002415784,261.58849338738946 158.56097667152062,262.23551646532724 160.2376071177423,263.1178194945678 160.84729091613553,263.23545979661867 162.47311437921599,264.05894124053884 163.59086800972,264.7647815439268 164.14974482543766,264.9412414851831 165.115077506518,265.6470807105652 166.13121717073955,266.0 166.38525208667852,265.5294408995542 166.99493588530459,265.2353412671946 167.24897080124356,265.0000614534947 167.8078476167284,264.82360153022455 168.26511046569794,264.35304147179704 168.3667244319804,264.00012117635924 168.56995236501098,263.76484085968696 168.874794264324,263.8236609477899 169.07802219735458,263.58838055911474 169.02721521398053,262.5884378386545 169.17963616363704,261.7061340008513 169.17963616363704,261.0002899602405 169.2812501299195,260.6473676166497 168.92560124746524,259.58859929221217 169.02721521398053,258.00044316705316 169.12882918026298,257.4122360867332 170.50061772717163,256.4711035126238 171.00868755904958,256.1769992688205 171.36433644173667,256.05935752933146 171.82159929093905,255.41232753411168 172.22805515653454,256.0005366507103 172.83773895492777,256.41228267597035 173.447422753321,256.64756598701933 174.56517638429068,256.7063867999823 175.07324621640146,256.3534618332633 175.73373699816875,255.47114847274497 175.88615794759244,253.8241599277826 175.9369649309665,252.2359879554715 175.9369649309665,250.58899018686498 175.9369649309665,250.0595970498398 175.7845439815428,249.47138188401004 175.530509065371,248.94198772258824 175.02243923326023,248.4714147275081 174.46356241800822,248.2361280862242 173.8030716360081,248.17730641085654 173.1425808542408,248.35377141885692 172.63451102213003,248.70670127304038 172.17724817316048,249.23609564983053 171.97402024036273,249.8831325629726 171.97402024036273,251.7654176435317 171.97402024036273,253.58887546678307 171.9232132572215,254.94175980967702 172.07563420687802,255.52996940532466 172.43128308909945,256.05935752933146 172.83773895492777,256.41228267597035 173.90468560229056,256.7063867999823 174.46356241800822,256.7063867999823 174.92082526674494,256.41228267597035 175.32728113257326,256.05935752933146 175.63212303165346,255.5887903320836 175.83535096468404,255.0594017766416 175.88615794759244,253.17712742910953 176.03857889748178,251.3536683061393 175.98777191434056,250.23606148263207 175.88615794759244,249.58902496495284 175.63212303165346,249.11845249705948 175.12405319977552,248.64787964557763 174.66679035080597,248.29494975559646 174.00629956880584,248.2361280862242 173.447422753321,248.29494975559646 172.83773895492777,248.5890580122359 172.38047610619105,248.94198772258824 172.12644119025208,249.53020342753734 171.97402024036273,250.118418533355 171.97402024036273,252.1183454132406 172.07563420687802,252.58891543769278 171.97402024036273,253.23594859527657 171.97402024036273,255.0594017766416 172.17724817316048,255.70643216732424 172.5837040389888,256.1181784021901 173.1425808542408,256.4711035126238 173.65065068635158,256.7063867999823 174.26033448497765,256.7063867999823 174.76840431708843,256.5887451682938 175.530509065371,255.76525307592237 175.7845439815428,255.2358646824141 175.88615794759244,253.29476975556463 175.9369649309665,251.41248965804698 175.9369649309665,250.17724001104943 175.83535096468404,249.53020342753734 175.47970208199695,248.94198772258824 175.07324621640146,248.5302363728406 174.46356241800822,248.35377141885692 173.85387861938216,248.29494975559646 173.24419482052326,248.412593076122 172.63451102213003,248.76552289439132 172.17724817316048,249.47138188401004 171.97402024036273,250.76545445807278 171.97402024036273,252.70655788376462 172.02482722350396,254.64765478717163 172.07563420687802,255.29468563903356 172.27886213967577,255.82407397852512 172.68531800527126,256.23582012951374 173.24419482052326,256.52992434357293 173.8030716360081,256.64756598701933 174.41275543463416,256.64756598701933 174.87001828383654,256.4711035126238 175.27647414943203,256.05935752933146 175.58131604874507,255.6476112526143 175.83535096468404,255.000580796157 175.9369649309665,254.35354961501434 175.9369649309665,252.53009420569288 175.9369649309665,250.64781161671272 175.9369649309665,250.0595970498398 175.7845439815428,249.35373877885286 175.42889509885572,248.88316611928167 174.971632250119,248.5302363728406 174.36194845149294,248.29494975559646 173.54903672006913,248.29494975559646 172.93935292144306,248.5302363728406 172.43128308909945,248.88316611928167 172.12644119025208,249.41256033442914 171.97402024036273,250.58899018686498 171.97402024036273,252.41245172353229 171.97402024036273,254.23590750421863 172.12644119025208,255.41232753411168 172.43128308909945,255.94171576591907 173.34580878703855,256.64756598701933 173.95549258566462,256.76520760689164 174.46356241800822,256.64756598701933 174.92082526674494,256.4711035126238 175.32728113257326,256.05935752933146 175.88615794759244,254.88293881725986 175.9369649309665,253.11830625671428 175.9369649309665,251.3536683061393 175.9369649309665,250.23606148263207 175.73373699816875,249.41256033442914 175.17486018268391,248.70670127304038 174.6159833674319,248.412593076122 174.10791353532113,248.29494975559646 173.49822973669507,248.35377141885692 172.888545938069,248.5890580122359 172.43128308909945,249.00080932013225 172.07563420687802,249.53020342753734 171.97402024036273,250.00077556003816 171.97402024036273,251.82423895352986 171.9232132572215,253.00066389451968 172.02482722350396,254.29472856258508 172.02482722350396,254.88293881725986 172.12644119025208,255.47114847274497 172.43128308909945,256.0005366507103 173.447422753321,256.64756598701933 174.05710655194707,256.7063867999823 174.6159833674319,256.5887451682938 175.3780881157145,255.94171576591907 175.63212303165346,255.52996940532466 175.88615794759244,254.29472856258508 175.9369649309665,252.6477366638719 175.9369649309665,250.64781161671272 175.88615794759244,250.0595970498398 175.73373699816875,249.47138188401004 175.42889509885572,248.94198772258824 174.971632250119,248.5890580122359 173.75226465263404,248.29494975559646 173.19338783738203,248.412593076122 172.68531800527126,248.76552289439132 172.22805515653454,249.1772740764427 172.02482722350396,249.647846496664 171.97402024036273,251.47131100401748 172.07563420687802,252.76537909795297 171.97402024036273,253.29476975556463 172.02482722350396,255.17704371991567 172.22805515653454,255.70643216732424 173.04096688772552,256.4711035126238 173.59984370297752,256.7063867999823 174.6159833674319,256.5887451682938 175.47970208199695,255.94171576591907 175.68293001502752,255.52996940532466 175.9369649309665,254.00062321085716 175.88615794759244,253.41241205809638 175.98777191434056,251.58895367768127 175.98777191434056,250.353704408044 175.88615794759244,249.76548954163445 175.58131604874507,249.1772740764427 175.27647414943203,248.76552289439132 174.15872051846236,248.29494975559646 172.9901599045843,248.5302363728406 172.4820900724735,248.88316611928167 172.17724817316048,249.35373877885286 171.97402024036273,250.58899018686498 171.97402024036273,252.41245172353229 172.02482722350396,254.05944429314695 172.07563420687802,255.29468563903356 172.27886213967577,255.82407397852512 173.04096688772552,256.52992434357293 173.447422753321,256.7063867999823 173.95549258566462,256.76520760689164 174.51436940114945,256.64756598701933 174.92082526674494,256.41228267597035 175.32728113257326,256.0005366507103 175.83535096468404,255.0594017766416 175.9369649309665,253.29476975556463 175.88615794759244,251.47131100401748 175.88615794759244,250.41252586164046 175.83535096468404,249.76548954163445 175.68293001502752,249.2949172173976 175.27647414943203,248.76552289439132 174.81921130046248,248.4714147275081 174.20952750183642,248.35377141885692 173.65065068635158,248.29494975559646 173.09177387109958,248.4714147275081 172.53289705584757,248.76552289439132 172.22805515653454,249.23609564983053 172.07563420687802,249.82431105530122 171.97402024036273,251.70659632753814 171.97402024036273,253.53005433641374 172.12644119025208,255.47114847274497 172.68531800527126,256.3534618332633 173.75226465263404,256.7063867999823 174.36194845149294,256.7063867999823 174.87001828383654,256.4711035126238 175.32728113257326,256.1181784021901 175.68293001502752,255.6476112526143 175.83535096468404,255.0594017766416 175.98777191434056,253.88298102805857 175.98777191434056,252.0595241333358 175.9369649309665,250.23606148263207 175.83535096468404,249.647846496664 175.530509065371,249.11845249705948 175.12405319977552,248.70670127304038 174.6159833674319,248.412593076122 173.85387861938216,248.2361280862242 173.04096688772552,248.4714147275081 172.38047610619105,248.94198772258824 171.97402024036273,249.76548954163445 171.9232132572215,251.6477750056656 172.02482722350396,253.47123320010724 171.97402024036273,254.17708644003142 171.87240627384745,254.64765478717163 171.87240627384745,255.11822275130544 172.73612498841248,256.5887451682938 172.888545938069,257.05931155127473 173.24419482052326,257.235773845925 174.20952750183642,257.235773845925 168.7223733146675,258.70629087276757 168.7223733146675,259.2356760861003 168.62075934838504,259.58859929221217 168.62075934838504,260.8826492030639 168.77318029804155,261.76495429850183 168.67156633129343,263.2942799386801 168.11268951604143,264.11776129872305 166.89332191902213,265.17652132268995 166.4868660531938,265.4706209850847 166.18202415364794,265.82354038232006 165.92798923770897,265.9411801332608 164.70862164045684,265.411801064678 164.20055180834606,265.0588814159855 162.77795627852902,264.23540139739634 161.25374678196386,263.58838055911474 160.2376071177423,263.17663964856183 158.7642046045512,262.35315694694873 157.49403002415784,261.647313697089 157.2908020913601,261.47085274977144 156.98596019204706,261.35321208823007 155.36013672919944,260.05916323157726 154.34399706474505,259.8238813097705 152.87059455155395,258.9415732497582 151.5496129882522,257.941622486047 150.12701745820232,256.76520760689164 148.8060358944349,255.70643216732424 148.34877304569818,255.47114847274497 147.12940544844605,254.29472856258508 146.4181076833047,253.47123320010724 144.99551215348765,252.41245172353229 143.7253375730943,251.53013234381797 142.86161885829642,250.88309727562591 142.50596997584216,250.53016875108005 141.38821634533815,249.647846496664 140.88014651299454,249.05963091162266 139.50835796631873,248.00084134895587 138.74625321803614,247.47144584020134 138.18737640278414,246.88322803890333 137.7301135538146,246.2950096387649 136.10429009073414,244.70681696635438 135.54541327548213,244.3538846684969 134.93572947685607,244.11859635001747 133.61474791308865,242.88333110592794 133.00506411469541,242.11864177399548 131.6332755680196,240.94219467119547 130.8711708195042,240.23632525932044 130.7187498700805,239.88339023001026 130.41390797076747,239.58927754091565 130.312294004485,239.3539872817928 129.75341718900017,238.88340647588484 129.04211942409165,237.2363706365577 128.22920769266784,235.47168416844215 127.92436579312198,234.58933891286142 127.670330877183,232.76582111336756 127.31468199472874,231.00112098746467 127.21306802821346,230.2952394274762 127.36548897786997,229.76582769147353 127.26387501158752,228.47170807165094 127.06064707878977,228.00111840013415 126.8574191457592,225.94228407932678 126.70499819610268,224.2363872253918 126.55257724644616,223.82461826439248 126.4509632801637,222.2951881251647 126.29854233050719,220.35398250084836 126.14612138085067,218.64806914213113 125.94289344805293,217.00097560096765 125.94289344805293,215.94212727271952 125.79047249839641,214.11855060158996 125.6380515487399,212.53026945487363 125.43482361594215,211.8831906983978 125.6380515487399,210.70668201113585 125.38401663256809,209.82429892307846 124.97756076673977,207.94187716254964 124.82513981708325,206.00062329613138 124.77433283394203,204.29466754203895 124.52029791777022,202.5298804246704 124.41868395148776,200.2944756677607 124.469490934629,199.1767700444907 124.3678769681137,197.17665984638734 124.16464903554879,196.3530830455129 124.01222808565944,195.35302392265294 124.01222808565944,195.35302392265294" stroke="#4DD2FF" stroke-linecap="round" stroke-linejoin="round" stroke-width="0.5"><title>2025-02-13 7.6km</title><desc>9223370297406245007</desc></polyline></svg>