<?xml version="1.0" encoding="utf-8" ?>
<svg baseProfile="full" height="300mm" version="1.1" viewBox="0,0,200,300" width="200mm" xmlns="http://www.w3.org/2000/svg" xmlns:ev="http://www.w3.org/2001/xml-events" xmlns:xlink="http://www.w3.org/1999/xlink"><defs /><rect fill="#222222" height="300" width="200" x="0" y="0" /><text fill="#FFFFFF" style="font-size:12px; font-family:Arial; font-weight:bold;" x="10" y="20">Over 3km Runs</text><text fill="#FFFFFF" style="font-size:4px; font-family:Arial" x="10" y="280">ATHLETE</text><text fill="#FFFFFF" style="font-size:9px; font-family:Arial" x="10" y="290">Alex</text><text fill="#FFFFFF" style="font-size:4px; font-family:Arial" x="65" y="280">SPECIAL TRACKS</text><rect fill="yellow" height="2.6" width="2.6" x="65" y="283" /><text fill="#FFFFFF" style="font-size:3px; font-family:Arial" x="70" y="285.5">Over 20.0 km</text><rect fill="red" height="2.6" width="2.6" x="65" y="287" /><text fill="#FFFFFF" style="font-size:3px; font-family:Arial" x="70" y="289.5">Over 40.0 km</text><text fill="#FFFFFF" style="font-size:4px; font-family:Arial" x="120" y="280">STATISTICS</text><text fill="#FFFFFF" style="font-size:3px; font-family:Arial" x="120" y="285">Number: 3</text><text fill="#FFFFFF" style="font-size:3px; font-family:Arial" x="120" y="290">Weekly: 1.0</text><text fill="#FFFFFF" style="font-size:3px; font-family:Arial" x="141" y="285">Total: 26.5 km</text><text fill="#FFFFFF" style="font-size:3px; font-family:Arial" x="141" y="290">Avg: 8.8 km</text><text fill="#FFFFFF" style="font-size:3px; font-family:Arial" x="167" y="285">Min: 7.6 km</text><text fill="#FFFFFF" style="font-size:3px; font-family:Arial" x="167" y="290">Max: 10.0 km</text><polyline fill="none" points="24.525374852353707,35.69850250741001 23.916491233045235,36.967502899933606 23.855602870928124,38.800499359262176 24.22093304246664,40.98598879337078 24.525374852353707,43.594467148475815 24.64715157612227,47.61291456542676 24.829816661775112,50.36236514488701 25.560477005084977,53.534794550039805 28.178676568437368,53.67579107475467 28.36134165409021,53.6052928158897 26.047583900624886,54.098780477419496 25.925807176623493,55.93173156800913 25.621365366969258,58.11716690886533 26.23024898627773,61.64204807992792 26.473802434047684,65.73088775074575 26.71735588181764,66.85883927124087 26.900020967470482,68.76225329434965 27.082686053356156,69.89019987551728 27.32623950135894,71.65261272859061 27.38712786301039,74.19047935382696 27.569792949128896,75.60040123626823 27.935123120434582,79.05469771154458 28.056899844435975,81.73352800874272 28.604895101627335,84.62383328157011 30.066215788247064,88.57154781528516 31.283983026864007,90.40440762479557 32.258196817710996,89.41748371493304 33.232410608790815,89.06501054915134 31.649313198635355,91.17984685243573 32.56263862736523,92.30775690596784 34.328401123406366,94.14060682314448 37.00748904864304,96.39641544444021 38.04259120160714,96.74888487759745 39.1994700783398,95.90295793663245 41.45233946968801,94.14060682314448 40.78256748849526,94.6340655873646 38.22525628725998,96.6783910052618 37.06837741052732,96.53740323934471 35.97238689567894,95.409500077134 39.1994700783398,98.15876081533497 41.26967438380234,100.13258230430074 44.4967575664632,102.81133103795582 47.17584549123421,105.13760442403145 49.306938159046695,106.61795614525909 51.803360998630524,108.94421674025944 55.09133254294284,111.69342372973915 57.28331357240677,113.17376143287402 60.44950839295052,115.5 62.51971269864589,113.73769877303857 64.52902864245698,110.84751504968153 66.23390277684666,108.59175351628801 68.73032561596483,105.41957642440684 69.82631613081321,104.64415314688813 71.53119026497006,105.41957642440684 74.02761310432106,106.61795614525909 76.64581266720779,108.30978280777344 78.95957042067312,110.91800747904927 79.93378421198577,111.12948472466087 81.88221179344691,111.12948472466087 83.64797428948805,111.90490073838737 84.9266298902221,111.69342372973915 85.90084368130192,110.63603771815542 86.26617385260761,108.02781198447337 86.20528549095616,103.8687290007947 85.23107169987634,102.24738479760708 84.0133044612594,101.82442481577164 81.88221179344691,102.88182428566506 81.51688162214123,106.47697040357161 81.45599326002412,107.8163337916485 81.88221179344691,110.63603771815542 83.28264411794953,111.83440840936964 85.65729023353197,111.05899231653893 86.26617385260761,108.52126084989868 86.14439712907188,105.91302714904305 86.14439712907188,103.58675636857515 85.17018333775923,102.17689148517093 83.22175575629808,101.82442481577164 82.06487687933259,102.52935797517421 81.51688162214123,103.79823585337726 81.63865834590979,107.95731926063308 81.63865834590979,109.3671723723528 81.88221179344691,110.63603771815542 82.79553722240962,111.62293137930101 84.50041135656647,111.83440840936964 85.90084368130192,110.56554525985848 86.20528549095616,107.88682652992429 86.20528549095616,104.08020839933306 85.90084368130192,102.81133103795582 84.19596954691224,101.82442481577164 82.36931868898682,102.31787810276728 81.57776998379268,104.00971527368529 81.63865834590979,105.98352008103393 81.63865834590979,107.39337721210904 81.63865834590979,110.00160533603048 83.22175575629808,111.76391607295955 84.86574152810499,111.62293137930101 86.20528549095616,109.6491426503053 86.26617385260761,105.84253420983441 86.02262040483765,103.16379720508121 84.0133044612594,101.75393146037823 82.73464886052534,102.10639816569164 81.82132343179546,103.02281075966312 81.63865834590979,105.5605623818119 81.63865834590979,109.29667978495127 81.76043506967835,110.56554525985848 83.46530920360237,111.76391607295955 84.68307644245215,111.69342372973915 85.9617320431862,110.49505279463483 86.26617385260761,107.8163337916485 86.14439712907188,103.44577000942081 85.4746251476463,102.38837140065152 84.43952299468219,101.82442481577164 83.16086739418097,101.8949181639473 81.82132343179546,103.02281075966312 81.57776998379268,105.41957642440684 81.63865834590979,109.43766495259479 81.88221179344691,110.63603771815542 83.34353248006664,111.76391607295955 85.04840661399066,111.55243902147049 86.08350876695476,110.2130828613881 86.26617385260761,106.40647752193036 86.14439712907188,103.44577000942081 84.50041135656647,101.82442481577164 83.22175575629808,101.8949181639473 82.06487687933259,102.67034452105872 81.57776998379268,104.00971527368529 81.63865834590979,108.3802754956414 81.88221179344691,110.4245603219606 82.73464886052534,111.34096190537093 84.0741928233765,111.76391607295955 85.23107169987634,111.48194665671326 86.26617385260761,109.71963520173449 86.26617385260761,104.85563230869593 85.90084368130192,102.88182428566506 84.86574152810499,101.96541150507983 83.5870859278366,101.75393146037823 82.36931868898682,102.38837140065152 81.63865834590979,103.51626319251955 81.57776998379268,107.4638699934003 82.18665360310115,110.98849990149029 83.95241609914228,111.83440840936964 85.77906695730053,110.98849990149029 86.32706221472472,108.52126084989868 86.26617385260761,104.15070151805412 85.83995531918481,102.81133103795582 84.62218808056787,101.82442481577164 83.16086739418097,101.8949181639473 81.69954670779407,103.30478362151189 81.63865834590979,107.4638699934003 81.63865834590979,109.50815752556082 82.24754196498543,110.98849990149029 83.46530920360237,111.69342372973915 85.17018333775923,111.55243902147049 86.20528549095616,109.93111281318124 86.26617385260761,106.68844900547992 86.08350876695476,103.44577000942081 85.53551350929774,102.31787810276728 84.31774627091363,101.75393146037823 83.0390906704124,101.8949181639473 81.69954670779407,103.23429041693453 81.63865834590979,106.54746327799512 81.69954670779407,108.3802754956414 81.82132343179546,110.35406784230145 83.09997903206386,111.69342372973915 84.9266298902221,111.62293137930101 86.02262040483765,110.49505279463483 86.26617385260761,106.82943470426835 86.26617385260761,103.8687290007947 85.77906695730053,102.59985125175444 84.62218808056787,101.82442481577164 82.49109541298822,102.17689148517093 81.69954670779407,105.63105534948409 81.63865834590979,109.43766495259479 82.30843032710254,111.19997712533223 84.62218808056787,111.83440840936964 86.14439712907188,110.35406784230145 86.32706221472472,106.12450592324603 85.9617320431862,102.95231752633117 84.98751825210638,101.96541150507983 82.91731394641101,101.96541150507983 81.82132343179546,102.88182428566506 81.69954670779407,105.70154831005493 81.69954670779407,108.3802754956414 81.69954670779407,109.71963520173449 82.79553722240962,111.41145428473828 84.74396480456926,111.69342372973915 85.77906695730053,110.77702261292143 86.387950576609,108.59175351628801 86.26617385260761,104.57366007874953 86.20528549095616,103.23429041693453 83.89152773749083,101.68343809770886 82.49109541298822,102.10639816569164 81.63865834590979,103.37527681916254 81.57776998379268,106.33598463278031 81.57776998379268,108.94421674025944 82.18665360310115,111.05899231653893 83.40442084195092,111.69342372973915 85.04840661399066,111.62293137930101 86.20528549095616,109.93111281318124 86.387950576609,106.26549173687818 86.14439712907188,103.23429041693453 85.29196006199345,102.0359048388782 83.95241609914228,101.68343809770886 82.06487687933259,102.52935797517421 81.57776998379268,104.00971527368529 81.57776998379268,108.3802754956414 81.88221179344691,110.49505279463483 83.46530920360237,111.76391607295955 85.23107169987634,111.48194665671326 86.26617385260761,109.22618719050661 86.20528549095616,104.15070151805412 85.29196006199345,102.10639816569164 83.0390906704124,101.75393146037823 81.51688162214123,103.58675636857515 81.51688162214123,105.49006940668914 81.69954670779407,107.32288442377467 81.57776998379268,109.71963520173449 81.33421653602272,110.56554525985848 79.81200748775154,111.19997712533223 78.22891007759608,110.00160533603048 77.01114283874631,108.30978280777344 74.81916180928238,107.11140601552324 72.44451569393277,105.41957642440684 70.86141828377731,104.50316700310213 68.85210233973339,105.13760442403145 66.8427863959223,107.67534829385113 65.68590751942247,109.57865009154193 62.94593123253435,113.03277702629566 60.93661528849043,115.35901606705738 59.29262951621786,114.72458801296307 57.77042046794668,113.45573016058188 55.6393278001342,112.11637768236687 53.447346770437434,110.49505279463483 51.316254103323445,108.80323147244053 50.46381703601219,107.53436276718276 48.15005928254686,105.98352008103393 44.679422652348876,103.02281075966312 41.635004555340856,100.34406284440774 40.539014040725306,99.14567226334475 37.79903775360435,96.81937874259893 35.48528000037186,94.77505374106113 32.31908517982811,91.9552852116758 30.85776449344121,89.91094584582606 29.031113635282964,86.03373391384957 28.3004532919731,82.15650026599178 27.996011482318863,80.04163639555918 28.483118377858773,78.98420203733258 27.935123120434582,77.22180785081582 27.448016225127503,74.6839523393428 27.082686053356156,71.93459836870898 26.77824424393475,69.96069647569675 26.534690795931965,65.73088775074575 26.29113734839484,63.26348739117384 26.23024898627773,62.135530011495575 25.68225372908637,57.97617128863931 25.560477005084977,54.6627659452497 25.073370109777898,51.56084018468391 24.890705023892224,48.247404130059294 24.464486490236595,47.04892335284967 24.525374852353707,43.876464219531044 24.22093304246664,39.78749544220045 23.794714509043843,37.03800285368925 23.67293778527528,34.5 23.916491233045235,36.7560029962915" stroke="#4DD2FF" stroke-linecap="round" stroke-linejoin="round" stroke-width="0.5"><title>2025-02-24 10.0km</title><desc>9223370296456671807</desc></polyline><polyline fill="none" points="116.95274828351103,34.5 116.38210226711817,34.63214526732918 115.98265005531721,35.02858090790687 115.75439164880663,34.96250831783982 115.81145625049248,37.407189662451856 116.21090846206062,40.3804383398965 116.15384386014193,43.94831876340322 116.49623147025704,47.45010824420024 116.72448987700045,49.432244854746386 117.12394208856858,50.29116883844836 117.58045890182257,52.40543841436738 117.46632969845086,56.501816108240746 117.69458810519427,57.955363265646156 117.92284651170485,62.18384556809906 118.37936332519166,64.89270255918382 118.49349252856337,66.21409210859565 118.72175093507394,69.12113964324817 119.23533235024661,73.08527437917655 119.4065261548385,75.1994696672773 119.86304296832532,78.23861332348315 120.66194739146158,81.54201419325545 121.80323942471296,83.98652000818402 123.00159605965018,85.63820791244507 125.17005092278123,88.21483264648123 126.36840755748563,88.94157110602828 128.13741020904854,90.6593133196584 129.05044383578934,90.46111252729315 130.4199942755513,92.11278394854162 133.10203055362217,95.0857819110388 135.44167922181077,97.13383924931986 136.98242346663028,98.52122925705044 138.92261992325075,99.71041833114577 141.14813938783482,101.62632947700331 144.62908008904196,104.59928384743398 147.08285796060227,106.84550700447289 149.65076503506862,108.43107161018997 151.64802609337494,109.62024252169067 153.58822254976258,110.74334638129221 156.72677564132027,112.46103087713709 159.35174731747247,113.5841298198211 160.60716855409555,114.24477534840116 162.8897526205983,115.5 165.45765969529748,113.51806522987317 166.0853703133762,110.28089208621532 166.0853703133762,105.92059252865147 166.14243491529487,104.79748032131465 167.9685021683108,104.46715283155208 169.79456942155957,104.40108731325017 172.02008888637647,105.06174219190143 173.27551012276672,104.46715283155208 174.0744145461358,101.89059263915988 173.90322074107826,97.72843533020932 173.33257472445257,96.27497728163144 171.33531366637908,95.61431345599703 170.13695703167468,96.27497728163144 169.5092464131303,98.85155977407703 169.566311015049,102.94764421216678 170.02282782807015,104.26895625673933 171.10705525963567,104.99567673436832 172.5336703013163,104.92961127014132 173.84615613915958,103.60830057098065 173.9602853427641,101.56026366946753 173.90322074107826,99.77648432686692 173.90322074107826,97.06777298462112 172.41954109771177,95.6803798689507 170.4222800398711,96.01071183220483 169.62337561673485,97.06777298462112 169.5092464131303,100.6353416594211 169.5092464131303,103.34403810818912 170.25108623481356,104.46715283155208 172.13421808951534,105.06174219190143 173.27551012276672,104.53321834286908 173.9602853427641,102.88157853938174 173.9602853427641,98.7854936842341 173.67496233433485,96.73744155932218 172.13421808951534,95.5482470364077 170.70760304830037,95.81251267431071 169.73750481987372,96.80350785789778 169.45218181144446,99.97468227369245 169.62337561673485,103.34403810818912 170.30815083626658,104.40108731325017 172.02008888637647,104.99567673436832 172.81899330974557,104.79748032131465 173.90322074107826,103.01370987843256 173.90322074107826,101.75846107158577 173.9602853427641,97.92663390288362 173.16138091962785,96.14284457045142 171.33531366637908,95.6803798689507 170.07989242998883,96.20891092944657 169.5092464131303,99.38008825137513 169.62337561673485,103.14584119047504 170.30815083626658,104.46715283155208 171.39237826806493,104.99567673436832 172.70486410637386,104.86354579898762 173.56083313096315,104.00469406321645 173.9602853427641,101.42813203466358 173.84615613915958,97.39810424152529 173.33257472445257,96.27497728163144 171.6777012764942,95.5482470364077 170.47934464132413,95.8785790670081 169.68044021818787,96.93564043473452 169.566311015049,98.85155977407703 169.566311015049,102.48518436093582 170.1940216331277,104.26895625673933 171.96302428469062,104.99567673436832 173.0472517160233,104.59928384743398 173.78909153793938,103.60830057098065 173.90322074107826,99.77648432686692 173.84615613915958,97.26597175886855 173.27551012276672,96.14284457045142 172.19128269143403,95.61431345599703 170.87879685289226,95.6803798689507 169.566311015049,97.39810424152529 169.566311015049,99.97468227369245 169.566311015049,103.27797247556737 170.7646676497534,104.79748032131465 172.59073490276933,104.92961127014132 173.50376852974296,104.00469406321645 173.84615613915958,100.89960522553883 173.90322074107826,97.59630291489884 173.2184455213137,96.07677820458775 171.7347658779472,95.5482470364077 170.47934464132413,95.8785790670081 169.62337561673485,96.93564043473452 169.566311015049,99.64435232873075 169.62337561673485,103.54223496536724 170.36521543818526,104.46715283155208 171.5635720731225,104.99567673436832 172.76192870782688,104.86354579898762 173.73202693625353,103.47616935300175 173.84615613915958,99.31402221525786 173.61789773288183,96.6713752541691 172.13421808951534,95.48218061012449 170.30815083626658,96.01071183220483 169.5092464131303,97.06777298462112 169.566311015049,100.83353934402112 169.62337561673485,103.54223496536724 170.93586145481095,104.79748032131465 172.647799504688,104.86354579898762 173.67496233433485,103.67436616972554 173.9602853427641,100.83353934402112 173.90322074107826,97.99270008015446 172.76192870782688,95.74644627497764 170.93586145481095,95.5482470364077 169.62337561673485,96.93564043473452 169.566311015049,100.76747345604235 169.62337561673485,103.27797247556737 170.47934464132413,104.59928384743398 171.5635720731225,104.99567673436832 172.76192870782688,104.79748032131465 173.78909153793938,103.47616935300175 173.84615613915958,99.71041833114577 173.73202693625353,97.06777298462112 172.07715348806232,95.48218061012449 170.07989242998883,96.14284457045142 169.5092464131303,97.66236912604654 169.62337561673485,101.89059263915988 169.90869862493128,103.872562926088 171.84889508131891,105.06174219190143 173.33257472445257,104.2028907185304 173.90322074107826,103.27797247556737 173.84615613915958,100.0407482428127 173.78909153793938,98.85155977407703 173.56083313096315,96.40710996603593 171.2782490644604,95.48218061012449 169.68044021818787,96.6713752541691 169.566311015049,101.16386868391419 169.566311015049,103.07977553788805 170.82173225143924,104.7314148368896 172.36247649625875,104.99567673436832 173.84615613915958,103.34403810818912 173.90322074107826,101.75846107158577 173.90322074107826,99.11582406650996 173.56083313096315,96.40710996603593 172.19128269143403,95.48218061012449 170.4222800398711,95.81251267431071 169.566311015049,97.19990550755756 169.62337561673485,101.75846107158577 169.5092464131303,102.81551285972819 170.82173225143924,104.79748032131465 172.3054118945729,104.92961127014132 173.78909153793938,103.60830057098065 174.0744145461358,99.71041833114577 174.3026729526464,98.32303086639149 174.18854374950752,96.6713752541691 166.02830571192317,104.13682517339475 166.0853703133762,105.78846178180538 165.97124111023732,106.71337644592859 166.0853703133762,108.2328762463294 165.7429827034939,112.32890146196587 164.25930306059308,114.04658176057274 163.40333403553814,114.70722681842744 162.60442961240187,115.43393560533877 159.0664243090432,113.25380680308444 155.41428980301134,111.60218919743784 153.30289954156615,110.47908682445996 151.47683228831738,109.1577874260256 149.25131282373331,108.2328762463294 146.28395353723317,105.52420020697173 144.11549867410213,104.2028907185304 141.20520398928784,101.956658412877 138.97968452470377,99.84255031583598 137.55306948325597,98.65336148400092 135.4987438232638,97.33203800348565 134.69983940012753,96.27497728163144 132.87377214687876,94.55724993557669 129.44989604712464,91.58424955117516 127.90915180253796,90.52717946469784 124.94179251603782,87.75236229388975 122.60214384808205,85.17573572311085 121.17552880663425,82.73123438889161 120.0913013748359,79.62604373728391 119.34946155338548,75.4637435938348 119.57771995989606,74.20844148390461 118.95000934181735,71.82996766682481 118.66468633362092,67.86582526029088 118.49349252856337,66.54443907539826 118.20816952036694,64.2980763836531 117.86578191025183,60.267817939748056 117.58045890182257,58.81427596404683 117.23807129194029,54.12327737087617 117.40926509676501,52.00901339366101 117.06687748711556,50.62152391386917 116.72448987700045,49.63045818271348" stroke="#4DD2FF" stroke-linecap="round" stroke-linejoin="round" stroke-width="0.5"><title>2025-02-17 8.9km</title><desc>9223370297062089807</desc></polyline><polyline fill="none" points="26.392493013758212,184.5 25.992388020968065,184.76472232787637 25.70659874030389,186.6177756038378 26.049545877147466,188.07374232722213 26.049545877147466,189.3973456080421 26.22101944545284,191.5151052486617 26.049545877147466,193.10342044901336 26.27817730163224,193.8313969518058 26.392493013758212,195.8829627071973 26.621124438242987,198.00070120819146 26.506808725884184,198.79485136648873 26.621124438242987,199.45664242364 27.192702999338508,200.31696979037952 27.24986085575074,200.18461180792656 27.24986085575074,200.25079080247087 27.707123704254627,202.83176633011317 27.30701871146448,204.4862324297428 27.478492280235514,205.2803746612626 27.649965848308057,206.73629956471268 27.992912985151634,208.12604302039836 28.164386553457007,210.37609755113954 28.164386553457007,212.29525555262808 28.164386553457007,213.6849871186423 28.393017978174612,214.41294056229526 28.621649402193725,216.5967960000271 28.735965114319697,217.39092343044467 28.735965114319697,218.05269554746337 28.9074386828579,218.6482898768736 28.79312297073193,219.3100607134984 29.078912251163274,221.3615460244473 29.36470153182745,223.61155472451355 29.42185938800685,225.6630264550913 29.479017244186252,226.52331912447698 29.993437949335203,228.70713386218995 30.222069373354316,230.1630062770564 30.90796364704147,231.9497543281177 31.87964720092714,233.93502417835407 32.679857186507434,235.06000773486448 33.02280432311818,235.65558647620492 34.223119301721454,237.24379378475714 35.19480285560712,238.10407112294342 35.59490784839727,238.5672969102161 36.852380683179945,239.5599224854377 37.70974852493964,240.55254654429154 38.50995851051994,240.88342089380603 38.967221359489486,240.88342089380603 39.938904913607985,242.14074188505765 41.48216702835634,243.72893334453693 43.19690271210857,245.11859768774593 44.85448053944856,246.44208477559732 45.76900623738766,247.3685241334024 46.169111230410635,247.63322085002437 47.59805763303302,249.02287684445037 48.62689904309809,249.7507907032268 49.255635460605845,250.01548644993454 50.97037114389241,251.33896356541663 51.884896841598675,252.46391699422384 53.54247466893867,253.85356265923474 55.14289464033209,255.17703195865033 56.28605176252313,256.103458864789 58.17226101458073,257.22840404638555 59.77268098574132,258.3533472813433 60.57289097132161,258.48569341609254 62.57341593550518,259.742980353476 63.202152352780104,260.14001782843843 63.43078377726488,260.5370550608495 64.63109875563532,261.2649560235441 66.51730800746009,262.2575469313888 67.20320228068158,262.3898922712542 69.03225367655978,263.31630889570806 70.28972651087679,264.11037923698314 70.91846292861737,264.3088966708747 72.00446219462901,265.10296579945134 73.14761931705289,265.5 73.43340859748423,264.9706210120348 74.11930287093855,264.63975892565213 74.4050921513699,264.3750691352179 75.03382856887765,264.17655172158265 75.54824927379377,263.6471716557862 75.66256498591974,263.2501363234478 75.89119641063735,262.98544596717693 76.2341435472481,263.0516185663291 76.4627749719657,262.7869281290332 76.40561711555347,261.6619925685227 76.57709068409167,260.66940075095044 76.57709068409167,259.875326205336 76.69140639621764,259.47828856878914 76.2913014034275,258.28717420378234 76.40561711555347,256.500498562993 76.51993282767944,255.8387655976112 78.06319494312629,254.77999145176727 78.63477350398898,254.44912417751038 79.03487849701196,254.31677722057793 79.54929920216091,253.58886847592657 80.00656205113046,254.2506037321291 80.69245632435195,254.71381801046664 81.37835059757344,254.97851173544768 82.63582343212329,255.044685150031 83.20740199345164,254.64764456247212 83.95045412285253,253.6550420318963 84.12192769115791,251.80217991879908 84.17908554733731,250.01548644993454 84.17908554733731,248.16261396027403 84.17908554733731,247.56704668106977 84.00761197926477,246.90530461957678 83.72182269860059,246.30973618797725 83.15024413727224,245.78034156851936 82.52150772023015,245.51564409700222 81.77845559059642,245.44946971227182 81.0354034609627,245.64799284626497 80.46382489986718,246.0450389322359 79.94940419471823,246.64060760609573 79.72077277023345,247.3685241334024 79.72077277023345,249.48609484906774 79.72077277023345,251.53748490021098 79.66361491428688,253.0594797859667 79.83508848259225,253.72121558105573 80.23519347514957,254.31677722057793 80.69245632435195,254.71381801046664 81.8927713027224,255.044685150031 82.52150772023015,255.044685150031 83.03592842491344,254.71381801046664 83.49319127411582,254.31677722057793 83.83613841072656,253.7873891236377 84.06476983521134,253.19182699878002 84.12192769115791,251.07426835782826 84.29340125969611,249.02287684445037 84.23624340374954,247.76556916802656 84.12192769115791,247.03765308560105 83.83613841072656,246.50825905922102 83.26455984963104,245.9788646012894 82.75013914448209,245.58181847503874 82.0070870150812,245.51564409700222 81.37835059757344,245.58181847503874 80.69245632435195,245.9126902638236 80.17803561943583,246.30973618797725 79.89224633900449,246.97147885599406 79.72077277023345,247.63322085002437 79.72077277023345,249.88313858996844 79.83508848259225,250.41252986749168 79.72077277023345,251.14044216973707 79.72077277023345,253.19182699878002 79.94940419471823,253.91973618825432 80.4066670439206,254.38295070250751 81.0354034609627,254.77999145176727 81.60698202229105,255.044685150031 82.29287629574537,255.044685150031 82.86445485660806,254.9123383143451 83.72182269860059,253.9859097104636 84.00761197926477,253.3903477677377 84.12192769115791,251.20661597506842 84.17908554733731,249.0890508653829 84.17908554733731,247.69939501245972 84.06476983521134,246.97147885599406 83.66466484218836,246.30973618797725 83.20740199345164,245.84651591948932 82.52150772023015,245.64799284626497 81.83561344677582,245.58181847503874 81.14971917308867,245.7141672106809 80.46382489986718,246.11121325625572 79.94940419471823,246.90530461957678 79.72077277023345,248.3611362653901 79.72077277023345,250.54487761924975 79.77793062641285,252.7286116356263 79.83508848259225,253.4565213439637 80.06371990707703,254.0520832259208 80.52098275604658,254.51529764576117 81.14971917308867,254.84616488654865 81.77845559059642,254.97851173544768 82.46434986405075,254.97851173544768 82.9787705691997,254.77999145176727 83.43603341793641,254.31677722057793 83.77898055477999,253.85356265923474 84.06476983521134,253.1256533957203 84.17908554733731,252.39774331694935 84.17908554733731,250.3463559814263 84.17908554733731,248.2287880688673 84.17908554733731,247.56704668106977 84.00761197926477,246.77295612625312 83.60750698624179,246.2435618842137 83.09308628132567,245.84651591948932 82.40719200787134,245.58181847503874 81.49266631016508,245.58181847503874 80.80677203671075,245.84651591948932 80.23519347514957,246.2435618842137 79.89224633900449,246.839130376291 79.72077277023345,248.16261396027403 79.72077277023345,250.2140081890393 79.72077277023345,252.26539594231872 79.89224633900449,253.58886847592657 80.23519347514957,254.18443023669533 81.26403488544747,254.97851173544768 81.9499291589018,255.11085855780402 82.52150772023015,254.97851173544768 83.03592842491344,254.77999145176727 83.49319127411582,254.31677722057793 84.12192769115791,252.993306169461 84.17908554733731,251.00809453887632 84.17908554733731,249.02287684445037 84.17908554733731,247.76556916802656 83.95045412285253,246.839130376291 83.32171770557761,246.0450389322359 82.69298128830269,245.7141672106809 82.12140272744,245.58181847503874 81.43550845375285,245.64799284626497 80.74961418029852,245.9126902638236 80.23519347514957,246.37591048516333 79.83508848259225,246.97147885599406 79.72077277023345,247.50087250513025 79.72077277023345,249.55226882279385 79.66361491428688,250.87574688141467 79.77793062641285,252.33156963298097 79.77793062641285,252.993306169461 79.89224633900449,253.6550420318963 80.23519347514957,254.2506037321291 81.37835059757344,254.97851173544768 82.06424487102777,255.044685150031 82.69298128830269,254.9123383143451 83.55034913006239,254.18443023669533 83.83613841072656,253.72121558105573 84.12192769115791,252.33156963298097 84.17908554733731,250.47870374692138 84.17908554733731,248.2287880688673 84.12192769115791,247.56704668106977 83.95045412285253,246.90530461957678 83.60750698624179,246.30973618797725 83.09308628132567,245.9126902638236 81.72129773441702,245.58181847503874 81.0925613171421,245.7141672106809 80.52098275604658,246.11121325625572 80.00656205113046,246.57443333603442 79.77793062641285,247.103827308747 79.72077277023345,249.15522487956332 79.83508848259225,250.61105148523347 79.72077277023345,251.20661597506842 79.77793062641285,253.32417418493424 80.00656205113046,253.91973618825432 80.92108774883673,254.77999145176727 81.54982416587882,255.044685150031 82.69298128830269,254.9123383143451 83.66466484218836,254.18443023669533 83.89329626690596,253.72121558105573 84.17908554733731,252.00070111226523 84.12192769115791,251.33896356541663 84.23624340374954,249.2875728874351 84.23624340374954,247.8979174590786 84.12192769115791,247.23617573437514 83.77898055477999,246.57443333603442 83.43603341793641,246.11121325625572 82.17856058315374,245.58181847503874 80.86392989265732,245.84651591948932 80.2923513315618,246.2435618842137 79.94940419471823,246.77295612625312 79.72077277023345,248.16261396027403 79.72077277023345,250.2140081890393 79.77793062641285,252.06687482987763 79.83508848259225,253.4565213439637 80.06371990707703,254.0520832259208 80.92108774883673,254.84616488654865 81.37835059757344,255.044685150031 81.9499291589018,255.11085855780402 82.57866557617672,254.97851173544768 83.03592842491344,254.71381801046664 83.49319127411582,254.2506037321291 84.06476983521134,253.19182699878002 84.17908554733731,251.20661597506842 84.12192769115791,249.15522487956332 84.12192769115791,247.96409159438917 84.06476983521134,247.23617573437514 83.89329626690596,246.70678186963778 83.43603341793641,246.11121325625572 82.9216127130203,245.78034156851936 82.23571843933314,245.64799284626497 81.60698202229105,245.58181847503874 80.97824560501613,245.78034156851936 80.3495091877412,246.11121325625572 80.00656205113046,246.64060760609573 79.83508848259225,247.3023499372648 79.72077277023345,249.41992086853134 79.72077277023345,251.47131112852367 79.89224633900449,253.6550420318963 80.52098275604658,254.64764456247212 81.72129773441702,255.044685150031 82.40719200787134,255.044685150031 82.9787705691997,254.77999145176727 83.49319127411582,254.38295070250751 83.89329626690596,253.85356265923474 84.06476983521134,253.19182699878002 84.23624340374954,251.86835365660954 84.23624340374954,249.81696465006098 84.17908554733731,247.76556916802656 84.06476983521134,247.103827308747 83.72182269860059,246.50825905922102 83.26455984963104,246.0450389322359 82.69298128830269,245.7141672106809 81.83561344677582,245.51564409700222 80.92108774883673,245.78034156851936 80.17803561943583,246.30973618797725 79.72077277023345,247.23617573437514 79.66361491428688,249.35374688147567 79.77793062641285,251.40513735014247 79.72077277023345,252.1992222451372 79.60645705810748,252.7286116356263 79.60645705810748,253.25800059526227 80.57814061199315,254.9123383143451 80.74961418029852,255.44172549521318 81.14971917308867,255.64024557673838 82.23571843933314,255.64024557673838 76.06266997894272,257.2945772318635 76.06266997894272,257.89013559691375 75.94835426681675,258.28717420378234 75.94835426681675,259.742980353476 76.11982783512212,260.73557358584367 76.00551212253049,262.4560649310588 75.3767757054884,263.3824814610998 74.00498715881258,264.5735864880262 73.54772430984303,264.90444860828575 73.20477717276663,265.3014829301392 72.91898789233528,265.4338276499766 71.54719934565946,264.8382761978428 70.97562078456394,264.4412415930419 69.37520081317052,263.5148265720927 67.66046512988396,262.7869281290332 66.51730800746009,262.32371960463934 64.85973017988726,261.3973015653319 63.43078377726488,260.6032279092469 63.202152352780104,260.4047093435656 62.85920521593653,260.2723635993316 61.03015382052399,258.816558635619 59.88699669786729,258.55186647351366 58.22941887029447,257.55926990602165 56.74331461172551,256.43432529683923 55.14289464033209,255.11085855780402 53.65679038129747,253.91973618825432 53.14236967638135,253.6550420318963 51.7705811294727,252.33156963298097 50.97037114389241,251.40513735014247 49.36995117273182,250.2140081890393 47.94100476964377,249.22139888687525 46.9693212157581,248.49348443513736 46.56921622296795,248.0964398450451 45.31174338841811,247.103827308747 44.74016482708976,246.44208477559732 43.19690271210857,245.2509465176263 42.33953487034887,244.65537657029927 41.71079845307395,243.99363154382445 41.196377747925,243.33188584371237 39.3673263520468,241.54516908718506 38.73858993500471,241.1481202521245 38.05269566131756,240.88342089380603 36.56659140228294,239.4937474942417 35.880697129061446,238.63347199576674 34.337435013847426,237.30996900517493 33.48006717208773,236.5158659167355 33.308593604015186,236.1188140088343 32.96564646717161,235.78793723357376 32.85133075504564,235.52323569206055 32.222594337537885,234.99383228539955 31.42238435195759,233.14091696613468 30.50785865401849,231.15564468951197 30.164911517407745,230.1630062770564 29.8791222369764,228.11154875264037 29.479017244186252,226.1262611109414 29.36470153182745,225.33214435598347 29.536175100132823,224.73655615292955 29.42185938800685,223.2806715806364 29.193227963754907,222.75125820020912 28.964596539037302,220.43506958929356 28.79312297073193,218.51593562861672 28.621649402193725,218.05269554746337 28.507333690067753,216.3320866408758 28.33586012176238,214.14823031349806 28.164386553457007,212.22907778492663 27.935755128972232,210.37609755113954 27.935755128972232,209.18489318183856 27.76428156066686,207.13336942682508 27.592807992361486,205.34655313676922 27.36417656787671,204.61858953576302 27.592807992361486,203.2950172626297 27.30701871146448,202.30233628849965 26.84975586272776,200.18461180792656 26.678282294422388,198.00070120819146 26.621124438242987,196.08150098484475 26.33533515757881,194.0961154778488 26.22101944545284,191.58128512627445 26.27817730163224,190.32386630011024 26.163861589273438,188.07374232722213 25.935230165021494,187.14721842628205 25.76375659648329,186.0221519130282 25.76375659648329,186.0221519130282" stroke="#4DD2FF" stroke-linecap="round" stroke-linejoin="round" stroke-width="0.5"><title>2025-02-13 7.6km</title><desc>9223370297406245007</desc></polyline></svg>