<?xml version="1.0" encoding="utf-8" ?>
<svg baseProfile="full" height="300mm" version="1.1" viewBox="0,0,200,300" width="200mm" xmlns="http://www.w3.org/2000/svg" xmlns:ev="http://www.w3.org/2001/xml-events" xmlns:xlink="http://www.w3.org/1999/xlink"><defs /><rect fill="#222222" height="300" width="200" x="0" y="0" /><text fill="#FFFFFF" style="font-size:12px; font-family:Arial; font-weight:bold;" x="10" y="20">Over 3km Runs</text><text fill="#FFFFFF" style="font-size:4px; font-family:Arial" x="10" y="280">ATHLETE</text><text fill="#FFFFFF" style="font-size:9px; font-family:Arial" x="10" y="290">Alex</text><text fill="#FFFFFF" style="font-size:4px; font-family:Arial" x="65" y="280">SPECIAL TRACKS</text><rect fill="yellow" height="2.6" width="2.6" x="65" y="283" /><text fill="#FFFFFF" style="font-size:3px; font-family:Arial" x="70" y="285.5">Over 20.0 km</text><rect fill="red" height="2.6" width="2.6" x="65" y="287" /><text fill="#FFFFFF" style="font-size:3px; font-family:Arial" x="70" y="289.5">Over 40.0 km</text><text fill="#FFFFFF" style="font-size:4px; font-family:Arial" x="120" y="280">STATISTICS</text><text fill="#FFFFFF" style="font-size:3px; font-family:Arial" x="120" y="285">Number: 2</text><text fill="#FFFFFF" style="font-size:3px; font-family:Arial" x="120" y="290">Weekly: 1.0</text><text fill="#FFFFFF" style="font-size:3px; font-family:Arial" x="141" y="285">Total: 16.5 km</text><text fill="#FFFFFF" style="font-size:3px; font-family:Arial" x="141" y="290">Avg: 8.3 km</text><text fill="#FFFFFF" style="font-size:3px; font-family:Arial" x="167" y="285">Min: 7.6 km</text><text fill="#FFFFFF" style="font-size:3px; font-family:Arial" x="167" y="290">Max: 8.9 km</text><polyline fill="none" points="62.603664378169924,36.0 61.84280302282423,36.176193689752836 61.31020007375628,36.70477454387583 61.005855531897396,36.61667775711976 61.08194166747853,39.876252883288544 61.61454461608082,43.84058445319533 61.538458480499685,48.59775835118489 61.9949752939865,53.26681099226698 62.29931983631104,55.90965980628971 62.83192278491333,57.05489178461721 63.44061186956242,59.873917885823175 63.288439597934484,65.33575481100706 63.59278414072469,67.27381768747 63.89712868258357,72.91179409081815 64.505817766767,76.52360341220628 64.65799003839493,78.285456144833 64.96233458025381,82.1615195243503 65.64710980048403,87.44703250552993 65.87536820676178,90.26595955638913 66.48405729141086,94.31815109797753 67.5492631890811,98.72268559102667 69.0709858997725,101.98202667757869 70.66879474651068,104.18427721655462 73.56006789719686,107.61977686197497 75.15787674346939,108.58876147470437 77.51654694555327,110.8790844262112 78.73392511438578,110.61481670307694 80.55999236740172,112.81704526470276 84.13604073831812,116.78104254801292 87.25557229621336,119.51178566575982 89.3098979559727,121.36163900943939 91.89682656433433,122.9472244415083 94.86418585060164,125.50177263602382 99.50544011872262,129.46571179659804 102.77714394731447,132.46067600598326 106.2010200470686,134.57476214691997 108.86403479147702,136.16032336221542 111.45096339983866,137.65779517503688 115.63570085540414,139.94804116949672 119.13566309027374,141.44550642644754 120.80955807259306,142.32636713114334 123.85300349444151,144.0 127.27687959372997,141.35742030653637 128.1138270846568,137.0411894483259 128.1138270846568,131.22745670482982 128.1899132207036,129.72997376171406 130.62466955790296,129.2895371087361 133.05942589556798,129.20144975098083 136.02678518230096,130.08232292247703 137.70068016415462,129.2895371087361 138.7658860613592,125.85412351891864 138.53762765508145,120.3045804402791 137.7767662992701,118.36663637548918 135.11375155532733,117.48575127468212 133.5159427090548,118.36663637548918 132.6789952176623,121.80207969876938 132.75508135324344,127.26352561626118 133.36377043789253,129.02527500898577 134.80940701300278,129.99423564586323 136.71156040159985,129.90614836022723 138.46154151903465,128.14440076128813 138.6137137906626,125.41368489264278 138.53762765508145,123.03531243576435 138.53762765508145,119.42369731276995 136.55938813043758,117.57383982522879 133.89637338649482,118.01428244292038 132.83116748929024,119.42369731276995 132.6789952176623,124.1804555458948 132.6789952176623,127.79205081093824 133.6681149797514,129.2895371087361 136.17895745299757,130.08232292247703 137.70068016415462,129.37762445711996 138.6137137906626,127.17543805250898 138.6137137906626,121.7139915790176 138.2332831127569,118.98325541242957 136.17895745299757,117.39766271517146 134.2768040644005,117.75001689908095 132.98333975998685,119.07134381053038 132.60290908208117,123.29957636492327 132.83116748929024,127.79205081093824 133.74420111533254,129.20144975098083 136.02678518230096,129.99423564586323 137.09199107950553,129.72997376171406 138.53762765508145,127.35161317122402 138.53762765508145,125.6779480954865 138.6137137906626,120.56884520384483 137.54850789299235,118.19045942724915 135.11375155532733,117.57383982522879 133.43985657347366,118.27854790590936 132.6789952176623,122.50678433512803 132.83116748929024,127.52778825396672 133.74420111533254,129.2895371087361 135.18983769090846,129.99423564586323 136.93981880880892,129.81806106533622 138.08111084159464,128.67292541760253 138.6137137906626,125.23750937957084 138.46154151903465,119.86413898866158 137.7767662992701,118.36663637548918 135.57026836881414,117.39766271517146 133.97245952207595,117.83810542273568 132.9072536244057,119.24752057960723 132.75508135324344,121.80207969876938 132.75508135324344,126.64691248122836 133.59202884463593,129.02527500898577 135.95069904625416,129.99423564586323 137.39633562136441,129.46571179659804 138.38545538391918,128.14440076128813 138.53762765508145,123.03531243576435 138.46154151903465,119.68796234519687 137.70068016415462,118.19045942724915 136.2550435885787,117.48575127468212 134.50506247067824,117.57383982522879 132.75508135324344,119.86413898866158 132.75508135324344,123.29957636492327 132.75508135324344,127.70396330073709 134.35289019998163,129.72997376171406 136.787646537181,129.90614836022723 138.00502470647916,128.67292541760253 138.46154151903465,124.5328069673269 138.53762765508145,120.12840388651239 137.62459402857348,118.10237093945034 135.64635450439528,117.39766271517146 133.97245952207595,117.83810542273568 132.83116748929024,119.24752057960723 132.75508135324344,122.85913643828826 132.83116748929024,128.05631328717573 133.82028725091368,129.2895371087361 135.41809609765187,129.99423564586323 137.0159049439244,129.81806106533622 138.30936924833804,127.96822580398293 138.46154151903465,122.41869628702989 138.15719697717577,118.89516700559761 136.17895745299757,117.30957414687146 133.74420111533254,118.01428244292038 132.6789952176623,119.42369731276995 132.75508135324344,124.44471912534209 132.83116748929024,128.05631328717573 134.58114860672504,129.72997376171406 136.8637326732278,129.81806106533622 138.2332831127569,128.23248822626192 138.6137137906626,124.44471912534209 138.53762765508145,120.65693344024476 137.0159049439244,117.66192836663686 134.58114860672504,117.39766271517146 132.83116748929024,119.24752057960723 132.75508135324344,124.35663127474254 132.83116748929024,127.70396330073709 133.97245952207595,129.46571179659804 135.41809609765187,129.99423564586323 137.0159049439244,129.72997376171406 138.38545538391918,127.96822580398293 138.46154151903465,122.9472244415083 138.30936924833804,119.42369731276995 136.10287131741643,117.30957414687146 133.43985657347366,118.19045942724915 132.6789952176623,120.21649216808146 132.83116748929024,125.85412351891864 133.21159816673025,128.49675056809792 135.79852677555755,130.08232292247703 137.7767662992701,128.9371876246878 138.53762765508145,127.70396330073709 138.46154151903465,123.38766432373086 138.38545538391918,121.80207969876938 138.08111084159464,118.54281328810612 135.0376654197462,117.30957414687146 132.9072536244057,118.89516700559761 132.75508135324344,124.88515824521892 132.75508135324344,127.43970071716467 134.42897633556277,129.64188644918613 136.4833019953221,129.99423564586323 138.46154151903465,127.79205081093824 138.53762765508145,125.6779480954865 138.53762765508145,122.15443208866054 138.08111084159464,118.54281328810612 136.2550435885787,117.30957414687146 133.89637338649482,117.75001689908095 132.75508135324344,119.59987401013495 132.83116748929024,125.6779480954865 132.6789952176623,127.08735047967639 134.42897633556277,129.72997376171406 136.40721585974097,129.90614836022723 138.38545538391918,128.14440076128813 138.7658860613592,122.9472244415083 139.07023060368374,121.09737448854139 138.91805833298713,118.89516700559761 128.03774094954133,128.849100231193 128.1138270846568,131.0512823757017 127.9616548139602,132.28450192790478 128.1138270846568,134.31050166173372 127.65731027163565,139.7718686159933 125.6790707479231,142.06210901413579 124.53777871420607,142.9429690912366 123.47257281653583,143.9119141404517 118.75523241236806,141.00507573748473 113.88571973750368,138.80291892989771 111.07053272239864,137.30544909922173 108.63577638473362,135.54371656797593 105.6684170984663,134.31050166173372 101.7119380501099,130.69893360929564 98.82066489895806,128.9371876246878 94.94027198618278,125.94221121718874 91.97291269991547,123.12340042105643 90.0707593113184,121.53781531198183 87.33165843132883,119.7760506712948 86.2664525336586,118.36663637548918 83.83169619599357,116.0763332474744 79.26652806298807,112.11233273491962 77.21220240369439,110.70290595287224 73.25572335487232,107.00314972520573 70.13619179744273,103.56764763081446 68.23403840884566,100.30831251852214 66.78840183326975,96.16805831639795 65.79928207118064,90.61832479177974 66.10362661350518,88.94458864518674 65.26667912257835,85.77329022245249 64.88624844467267,80.48776701377938 64.65799003839493,78.72591876715887 64.27755936048925,75.73076851153746 63.821042547468096,70.35709058633074 63.44061186956242,68.4190346187097 62.9840950560756,62.16436982783489 63.21235346281901,59.345351191586815 62.75583664979786,57.495365218492225 62.29931983631104,56.17394424363738" stroke="#4DD2FF" stroke-linecap="round" stroke-linejoin="round" stroke-width="0.5"><title>2025-02-17 8.9km</title><desc>9223370297062089807</desc></polyline><polyline fill="none" points="61.85665735183284,156.0 61.32318402826786,156.35296310379636 60.94213165389374,158.82370080513647 61.39939450286329,160.7649897695519 61.39939450286329,162.5297941439785 61.62802592711523,165.35347366484348 61.39939450286329,167.47122726531234 61.70423640217632,168.44186260236893 61.85665735183284,171.17728360951878 62.16149925114587,174.00093494425528 62.00907830148935,175.05980182200437 62.16149925114587,175.94218989816727 62.92360399942845,177.08929305378115 62.99981447448954,176.91281574388267 62.99981447448954,177.0010544032557 63.609498272649944,180.44235510675935 63.076024948619306,182.64830990630435 63.30465637333691,183.70716621499741 63.533287797588855,185.6483994195587 63.990550646558404,187.50139069382567 64.21918207127601,190.50146340148058 64.21918207127601,193.06034073681803 64.21918207127601,194.91331615817035 64.52402397058904,195.8839207496494 64.82886586990207,198.79572799999733 64.98128681909293,199.85456457384862 64.98128681909293,200.73692739661783 65.20991824381053,201.5310531691648 65.05749729415402,202.4134142845869 65.43854966806248,205.1487280325964 65.8196020424366,208.14873963262653 65.89581251749769,210.88403527339688 65.97202299209312,212.0310921659693 66.65791726578027,214.9428451495478 66.96275916462764,216.88400836935034 67.87728486256674,219.26633910409873 69.1728629344143,221.91336557111936 70.23980958200991,223.41334364644717 70.69707243097946,224.20744863490108 72.29749240260571,226.32505837961799 73.59307047398761,227.47209483053302 74.12654379801825,228.08972921356326 75.80317424423993,229.4132299805642 76.94633136643097,230.73672872572206 78.01327801402658,231.1778945250553 78.62296181265265,231.1778945250553 79.9185398845002,232.8543225133908 81.97622270463035,234.97191112604924 84.26253694947809,236.82479691691697 86.47264071926475,238.5894463674631 87.69200831651688,239.82469884451712 88.22548164054751,240.1776278000325 90.13074351102114,242.03050245920895 91.50253205746412,243.00105427094968 92.3408472808078,243.35398193320725 94.62716152518988,245.11861808714457 95.84652912197635,246.61855599225964 98.056632891763,248.47141687892145 100.19052618695423,250.23604261147557 101.7147356835194,251.47127848636592 104.22968135261908,252.97120539518073 106.36357464781031,254.47112970845774 107.43052129494026,254.64759122143732 110.09788791416213,256.3239738046541 110.93620313704014,256.8533571045846 111.24104503635317,257.3827400811133 112.84146500751376,258.35327469801996 115.35641067661345,259.6767292418517 116.27093637408689,259.8531896949862 118.70967156859115,261.0884118608665 120.38630201481283,262.1471723159193 121.2246172381565,262.4118622277747 122.67261625966057,263.4706210658769 124.19682575622573,264.0 124.5778781301342,263.29416134930216 125.4924038280733,262.8530119008501 125.87345620198175,262.50009218027117 126.71177142532542,262.23540229542414 127.39766569854692,261.52956220769556 127.55008664773777,261.00018176453887 127.85492854751647,260.64726128953043 128.312191396486,260.73549142171396 128.61703329579905,260.3825708386721 128.54082282073796,258.88265675801085 128.76945424545556,257.55920100124786 128.76945424545556,256.5004349403898 128.92187519464642,255.97105142503278 128.38840187108144,254.38289893831825 128.54082282073796,252.00066475063795 128.69324377039447,251.11835413012886 130.75092659099028,249.70665526902303 131.5130313388072,249.26549890328897 132.04650466283783,249.0890362940845 132.73239893605933,248.11849130113842 133.3420827346854,249.0008049760945 134.2566084326245,249.61842401395552 135.17113413009793,249.9713489804999 136.8477645763196,250.05958020000253 137.6098693246022,249.53019274992403 138.6006054971367,248.20672270917566 138.82923692138866,245.7362398917321 138.90544739644974,243.35398193320725 138.90544739644974,240.88348528032657 138.90544739644974,240.0893955747597 138.6768159721978,239.20707282604417 138.29576359782368,238.41298158391146 137.53365885000676,237.70712209132034 136.6953436266631,237.3541921293363 135.70460745412856,237.26595961628482 134.71387128159404,237.5306571283145 133.95176653331146,238.06005190958967 133.2658722596243,238.8541434747749 132.96103036031127,239.82469884451712 132.96103036031127,242.64812646532664 132.96103036031127,245.3833132002037 132.88481988571584,247.41263971460285 133.11345131043345,248.2949541080161 133.64692463353276,249.0890362940845 134.2566084326245,249.61842401395552 135.85702840378508,250.05958020000253 136.6953436266631,250.05958020000253 137.38123789988458,249.61842401395552 137.9909216989763,249.0890362940845 138.4481845474802,248.38318549812539 138.75302644679323,247.5891026649624 138.82923692138866,244.7656911437516 139.05786834610626,242.03050245920895 138.98165787151083,240.3540922239772 138.82923692138866,239.38353744742926 138.4481845474802,238.67767874558922 137.68607979966328,237.97181946836645 137.00018552597612,237.4424246333656 136.0094493534416,237.3541921293363 135.17113413009793,237.4424246333656 134.2566084326245,237.88358701841207 133.570714159403,238.41298158391146 133.18966178549454,239.29530514130602 132.96103036031127,240.1776278000325 132.96103036031127,243.1775181198609 133.11345131043345,243.88337315659737 132.96103036031127,244.85392289288575 132.96103036031127,247.5891026649624 133.2658722596243,248.55964825098636 133.87555605825037,249.17726760334335 134.71387128159404,249.70665526902303 135.47597602941096,250.05958020000253 136.39050172781572,250.05958020000253 137.15260647563264,249.88311775244074 138.29576359782368,248.64787961397087 138.6768159721978,247.85379702359205 138.82923692138866,244.94215463340515 138.90544739644974,242.11873448709957 138.90544739644974,240.26586001663236 138.75302644679323,239.29530514130602 138.2195531227626,238.41298158391146 137.6098693246022,237.7953545592609 136.6953436266631,237.5306571283145 135.78081792918965,237.4424246333656 134.8662922307849,237.6188896142412 133.95176653331146,238.1482843416161 133.2658722596243,239.20707282604417 132.96103036031127,241.14818168710917 132.96103036031127,244.05983682564693 133.03724083537236,246.97148218081566 133.11345131043345,247.94202845857944 133.41829320928082,248.73611096781678 134.02797700790688,249.3537301942706 134.8662922307849,249.7948865153594 135.70460745412856,249.9713489804999 136.61913315206766,249.9713489804999 137.30502742575482,249.70665526902303 137.91471122391522,249.0890362940845 138.37197407288477,248.47141687892145 138.75302644679323,247.50087119423551 138.90544739644974,246.53032442257972 138.90544739644974,243.79514130856842 138.90544739644974,240.97171742515638 138.90544739644974,240.0893955747597 138.6768159721978,239.0306081682793 138.14334264816716,238.3247491788934 137.45744837494567,237.7953545592609 136.54292267700657,237.4424246333656 135.3235550802201,237.4424246333656 134.409029382281,237.7953545592609 133.64692463353276,238.3247491788934 133.18966178549454,239.11884050170192 132.96103036031127,240.88348528032657 132.96103036031127,243.61867758532753 132.96103036031127,246.35386125638615 133.18966178549454,248.11849130113842 133.64692463353276,248.9125736489077 135.0187131804414,249.9713489804999 135.93323887884617,250.14781141036656 136.6953436266631,249.9713489804999 137.38123789988458,249.70665526902303 137.9909216989763,249.0890362940845 138.82923692138866,247.32440822588978 138.90544739644974,244.67745938512962 138.90544739644974,242.03050245920895 138.90544739644974,240.3540922239772 138.6006054971367,239.11884050170192 137.76229027379304,238.06005190958967 136.92397505091503,237.6188896142412 136.1618703030981,237.4424246333656 135.24734460515901,237.5306571283145 134.33281890721992,237.88358701841207 133.64692463353276,238.50121398019837 133.11345131043345,239.29530514130602 132.96103036031127,240.00116334011545 132.96103036031127,242.736358430353 132.88481988571584,244.50099584180862 133.03724083537236,246.44209284387762 133.03724083537236,247.32440822588978 133.18966178549454,248.20672270917566 133.64692463353276,249.0008049760945 135.17113413009793,249.9713489804999 136.08565982803702,250.05958020000253 136.92397505091503,249.88311775244074 138.06713217357174,248.9125736489077 138.4481845474802,248.2949541080161 138.82923692138866,246.44209284387762 138.90544739644974,243.97160499583697 138.90544739644974,240.97171742515638 138.82923692138866,240.0893955747597 138.6006054971367,239.20707282604417 138.14334264816716,238.41298158391146 137.45744837494567,237.88358701841207 135.62839697906747,237.4424246333656 134.79008175618947,237.6188896142412 134.02797700790688,238.1482843416161 133.3420827346854,238.76591111463495 133.03724083537236,239.47176974499598 132.96103036031127,242.20696650608443 133.11345131043345,244.14806864695856 132.96103036031127,244.94215463340515 133.03724083537236,247.7655655798735 133.3420827346854,248.55964825098636 134.56145033147186,249.70665526902303 135.39976555481553,250.05958020000253 136.92397505091503,249.88311775244074 138.2195531227626,248.9125736489077 138.52439502254128,248.2949541080161 138.90544739644974,246.00093481631484 138.82923692138866,245.11861808714457 138.98165787151083,242.3834305165219 138.98165787151083,240.530556612066 138.82923692138866,239.64823431248078 138.37197407288477,238.76591111463495 137.91471122391522,238.1482843416161 136.23808077769354,237.4424246333656 134.48523985687643,237.7953545592609 133.72313510859385,238.3247491788934 133.2658722596243,239.0306081682793 132.96103036031127,240.88348528032657 132.96103036031127,243.61867758532753 133.03724083537236,246.08916643977864 133.11345131043345,247.94202845857944 133.41829320928082,248.73611096781678 134.56145033147186,249.7948865153594 135.17113413009793,250.05958020000253 135.93323887884617,250.14781141036656 136.77155410172418,249.9713489804999 137.38123789988458,249.61842401395552 137.9909216989763,249.0008049760945 138.75302644679323,247.5891026649624 138.90544739644974,244.94215463340515 138.82923692138866,242.20696650608443 138.82923692138866,240.6187887924607 138.75302644679323,239.64823431248078 138.52439502254128,238.9423758261255 137.91471122391522,238.1482843416161 137.22881695069373,237.70712209132034 136.31429125275463,237.5306571283145 135.47597602941096,237.4424246333656 134.63766080653295,237.70712209132034 133.79934558365494,238.1482843416161 133.3420827346854,238.8541434747749 133.11345131043345,239.73646658298094 132.96103036031127,242.5598944912781 132.96103036031127,245.2950815046206 133.18966178549454,248.20672270917566 134.02797700790688,249.53019274992403 135.62839697906747,250.05958020000253 136.54292267700657,250.05958020000253 137.30502742575482,249.70665526902303 137.9909216989763,249.17726760334335 138.52439502254128,248.47141687892145 138.75302644679323,247.5891026649624 138.98165787151083,245.82447154214606 138.98165787151083,243.0892862000619 138.90544739644974,240.3540922239772 138.75302644679323,239.47176974499598 138.29576359782368,238.67767874558922 137.68607979966328,238.06005190958967 136.92397505091503,237.6188896142412 135.78081792918965,237.3541921293363 134.56145033147186,237.70712209132034 133.570714159403,238.41298158391146 132.96103036031127,239.64823431248078 132.88481988571584,242.47166250855662 133.03724083537236,245.20684980013175 132.96103036031127,246.26562966010533 132.80860941065475,246.97148218081566 132.80860941065475,247.67733412695816 134.1041874825023,249.88311775244074 134.33281890721992,250.5889673269121 134.8662922307849,250.8536607689457 136.31429125275463,250.8536607689457 128.0835599717684,253.05943630915135 128.0835599717684,253.85351412917953 127.93113902257755,254.38289893831825 127.93113902257755,256.3239738046541 128.1597704468295,257.64743144775275 128.00734949670732,259.9414199080202 127.16903427382931,261.1766419481137 125.33998287841678,262.7647819840349 124.73029907979071,263.2059314776561 124.2730362303555,263.7353105734801 123.89198385644704,263.9117701999494 122.0629324610345,263.1177015970461 121.30082771275192,262.5883221240365 119.1669344175607,261.3531020961236 116.88062017317861,260.3825708386721 115.35641067661345,259.76495947281364 113.1463069068268,258.5297354204231 111.24104503635317,257.47097054566257 110.93620313704014,257.20627912465716 110.47894028807059,257.0298181324033 108.04020509403199,255.088744847395 106.51599559700117,254.73582196468487 104.30589182721451,253.41235987463733 102.32441948261112,251.91243372904137 100.19052618695423,250.14781141036656 98.20905384188518,248.55964825098636 97.52315956866369,248.20672270917566 95.69410817278549,246.44209284387762 94.62716152518988,245.20684980013175 92.49326822999865,243.61867758532753 90.58800635952502,242.29519851575606 89.29242828767747,241.32464591349708 88.75895496364683,240.7952531266492 87.08232451789081,239.47176974499598 86.32021976960823,238.5894463674631 84.26253694947809,237.00126202352112 83.11937982682139,236.20716876036022 82.28106460394338,235.3248420584132 81.59517033072188,234.44251445820555 79.15643513621762,232.06022544956068 78.31811991333961,231.53082700277446 77.40359421540052,231.1778945250553 75.4221218698658,229.3249966589501 74.5075961719267,228.17796266102232 72.44991335179657,226.4132920068223 71.30675622960553,225.35448788898066 71.07812480535358,224.8250853450736 70.62086195638403,224.38391631143168 70.46844100672752,224.0309809226892 69.63012578338385,223.32510971382726 68.5631791362539,220.85455595480744 67.34381153900176,218.20752625266323 66.88654869003221,216.88400836935034 66.50549631565809,214.14873167010956 65.97202299209312,211.501681481197 65.8196020424366,210.4428591412725 66.04823346668854,209.6487415372394 65.89581251749769,207.7075621075346 65.59097061818466,207.00167760025943 65.28612871887162,203.91342611896107 65.05749729415402,201.35458083811682 64.82886586990207,200.73692739661783 64.67644492024556,198.44278218777617 64.44781349552795,195.53097375127254 64.21918207127601,192.9721037131967 63.91434017196298,190.50146340148058 63.91434017196298,188.91319090907928 63.68570874771103,186.17782590235583 63.45707732299343,183.79540418233955 63.152235423680395,182.82478604762582 63.45707732299343,181.060023016762 63.076024948619306,179.73644838458858 62.4663411504589,176.91281574388267 62.2377097257413,174.00093494425528 62.16149925114587,171.44200131308753 61.78044687677175,168.79482063703472 61.62802592711523,165.44171350164106 61.70423640217632,163.76515506679425 61.55181545205414,160.7649897695519 61.24697355320677,159.52962456829846 61.01834212848917,158.0295358839794 61.01834212848917,158.0295358839794" stroke="#4DD2FF" stroke-linecap="round" stroke-linejoin="round" stroke-width="0.5"><title>2025-02-13 7.6km</title><desc>9223370297406245007</desc></polyline></svg>