<?xml version="1.0" encoding="utf-8" ?>
<svg baseProfile="full" height="300mm" version="1.1" viewBox="0,0,200,300" width="200mm" xmlns="http://www.w3.org/2000/svg" xmlns:ev="http://www.w3.org/2001/xml-events" xmlns:xlink="http://www.w3.org/1999/xlink"><defs /><rect fill="#222222" height="300" width="200" x="0" y="0" /><text fill="#FFFFFF" style="font-size:12px; font-family:Arial; font-weight:bold;" x="10" y="20">Over 3km Runs</text><text fill="#FFFFFF" style="font-size:4px; font-family:Arial" x="10" y="280">ATHLETE</text><text fill="#FFFFFF" style="font-size:9px; font-family:Arial" x="10" y="290">Alex</text><text fill="#FFFFFF" style="font-size:4px; font-family:Arial" x="65" y="280">SPECIAL TRACKS</text><rect fill="yellow" height="2.6" width="2.6" x="65" y="283" /><text fill="#FFFFFF" style="font-size:3px; font-family:Arial" x="70" y="285.5">Over 20.0 km</text><rect fill="red" height="2.6" width="2.6" x="65" y="287" /><text fill="#FFFFFF" style="font-size:3px; font-family:Arial" x="70" y="289.5">Over 40.0 km</text><text fill="#FFFFFF" style="font-size:4px; font-family:Arial" x="120" y="280">STATISTICS</text><text fill="#FFFFFF" style="font-size:3px; font-family:Arial" x="120" y="285">Number: 1</text><text fill="#FFFFFF" style="font-size:3px; font-family:Arial" x="120" y="290">Weekly: 1.0</text><text fill="#FFFFFF" style="font-size:3px; font-family:Arial" x="141" y="285">Total: 7.6 km</text><text fill="#FFFFFF" style="font-size:3px; font-family:Arial" x="141" y="290">Avg: 7.6 km</text><text fill="#FFFFFF" style="font-size:3px; font-family:Arial" x="167" y="285">Min: 7.6 km</text><text fill="#FFFFFF" style="font-size:3px; font-family:Arial" x="167" y="290">Max: 7.6 km</text><polyline fill="none" points="42.784986027516425,69.0 41.98477604193613,69.52944465575274 41.41319748060778,73.2355512076756 42.09909175429493,76.14748465444427 42.09909175429493,78.79469121608417 42.44203889090568,83.03021049732342 42.09909175429493,86.20684089802671 42.55635460326448,87.6627939036116 42.784986027516425,91.76592541439459 43.242248876485974,96.00140241638292 43.01361745176837,97.58970273297746 43.242248876485974,98.91328484728001 44.385405998677015,100.63393958075903 44.49972171150148,100.36922361585312 44.49972171150148,100.50158160494175 45.414247408509254,105.66353266022634 44.61403742292896,108.97246485948563 44.95698456047103,110.56074932252523 45.29993169661611,113.47259912942536 45.98582597030327,116.25208604079671 46.328773106914014,120.75219510227907 46.328773106914014,124.59051110525616 46.328773106914014,127.36997423728462 46.786035956349224,128.82588112459052 47.24329880438745,133.1935920000542 47.471930228639394,134.78184686088935 47.471930228639394,136.10539109492674 47.8148773657158,137.2965797537472 47.58624594146386,138.62012142699677 48.15782450232655,142.7230920488946 48.7294030636549,147.2231094490271 48.8437187760137,151.32605291018263 48.958034488372505,153.04663824895397 49.986875898670405,157.4142677243799 50.44413874670863,160.32601255411282 51.81592729408294,163.8995086562354 53.75929440185428,167.87004835670814 55.35971437301487,170.12001546972897 56.04560864623636,171.31117295240983 58.44623860344291,174.4875875695143 60.389605711214244,176.20814224588685 61.18981569679454,177.1345938204322 63.70476136635989,179.11984497087542 65.41949704987928,181.1050930885831 67.01991702103987,181.76684178761207 67.93444271897897,181.76684178761207 69.87780982721597,184.2814837701153 72.96433405671269,187.45786668907385 76.39380542421713,190.23719537549186 79.70896107889712,192.88416955119465 81.53801247477531,194.73704826680478 82.33822246082127,195.26644170004874 85.19611526606604,198.04575368890073 87.25379808619618,199.50158140645362 88.51127092121169,200.03097289986908 91.94074228778481,202.67792713083327 93.76979368319735,204.92783398844767 97.08494933787733,207.70712531846948 100.28578928066418,210.35406391730066 102.57210352504626,212.20691772957798 106.34452202916145,214.4568080927711 109.54536197148263,216.7066945626866 111.14578194264323,216.9713868321851 115.14683187101036,219.48596070695203 116.40430470556021,220.28003565687686 116.86156755452976,221.07411012169905 119.26219751127064,222.52991204708815 123.03461601492018,224.51509386277758 124.40640456136316,224.77978454250842 128.06450735311955,226.63261779141612 130.57945302175358,228.22075847396627 131.83692585723475,228.61779334174935 134.00892438925803,230.20593159890268 136.29523863410577,231.0 136.86681719496846,229.94124202406965 138.2386057418771,229.27951785130426 138.8101843027398,228.75013827043585 140.0676571377553,228.3531034431653 141.09649854758754,227.29434331157245 141.3251299718395,226.5002726468956 141.7823928212747,225.97089193435386 142.4682870944962,226.10323713265825 142.9255499439314,225.57385625806637 142.81123423110694,223.32398513704538 143.15418136818334,221.3388015019009 143.15418136818334,219.75065241067205 143.3828127924353,218.95657713757828 142.582602806855,216.57434840756468 142.81123423110694,213.00099712598603 143.03986565535888,211.6775311952224 146.12638988625258,209.55998290353455 147.26954700797796,208.89824835502077 148.06975699402392,208.63355444115587 149.09859840432182,207.17773695185315 150.01312410226092,208.5012074642582 151.3849126487039,209.42763602093328 152.7567011951469,209.95702347089536 155.27164686424658,210.089370300062 156.41480398690328,209.29528912494425 157.90090824570507,207.3100840637926 158.24385538231581,203.60435983759817 158.35817109467462,200.03097289986908 158.35817109467462,196.32522792054806 158.35817109467462,195.13409336213954 158.01522395852953,193.81060923915356 157.44364539720118,192.6194723759545 156.30048827454448,191.56068313703872 155.0430154404603,191.03128819400445 153.55691118119285,190.89893942454364 152.0708069219254,191.29598569252994 150.92764979973435,192.09007786447182 149.89880838943645,193.28121521219146 149.4415455404669,194.73704826680478 149.4415455404669,198.97218969813548 149.4415455404669,203.07496980042197 149.32722982857376,206.11895957193337 149.6701769651845,207.44243116211146 150.47038695029914,208.63355444115587 151.3849126487039,209.42763602093328 153.7855426054448,210.089370300062 155.0430154404603,210.089370300062 156.07185684982687,209.42763602093328 156.98638254823163,208.63355444115587 157.67227682145312,207.5747782472754 158.12953967042267,206.38365399756003 158.24385538231581,202.14853671565652 158.58680251939222,198.04575368890073 158.47248680749908,195.53113833605312 158.24385538231581,194.0753061712021 157.67227682145312,193.01651811844204 156.52911969926208,191.95772920257878 155.50027828896418,191.1636369500775 154.0141740301624,191.03128819400445 152.7567011951469,191.1636369500775 151.3849126487039,191.8253805276472 150.35607123887166,192.6194723759545 149.78449267800897,193.94295771198813 149.4415455404669,195.26644170004874 149.4415455404669,199.76627717993688 149.6701769651845,200.82505973498337 149.4415455404669,202.28088433947414 149.4415455404669,206.38365399756003 149.89880838943645,207.83947237650864 150.8133340878412,208.76590140501503 152.0708069219254,209.55998290353455 153.2139640445821,210.089370300062 154.58575259149075,210.089370300062 155.72890971321613,209.8246766286902 157.44364539720118,207.9718194209272 158.01522395852953,206.7806955354754 158.24385538231581,202.41323195013683 158.35817109467462,198.17810173076577 158.35817109467462,195.39879002491944 158.12953967042267,193.94295771198813 157.32932968437672,192.6194723759545 156.41480398690328,191.69303183897864 155.0430154404603,191.29598569252994 153.67122689355165,191.1636369500775 152.29943834617734,191.4283344213618 150.92764979973435,192.22242651251145 149.89880838943645,193.81060923915356 149.4415455404669,196.72227253078017 149.4415455404669,201.0897552384995 149.5558612528257,205.4572232712526 149.6701769651845,206.91304268792737 150.12743981415406,208.1041664518416 151.04196551209316,209.03059529152233 152.29943834617734,209.6923297730973 153.55691118119285,209.95702347089536 154.9286997281015,209.95702347089536 155.9575411383994,209.55998290353455 156.87206683587283,208.63355444115587 157.55796110955998,207.70712531846948 158.12953967042267,206.25130679144058 158.35817109467462,204.7954866338987 158.35817109467462,200.69271196285263 158.35817109467462,196.45757613773458 158.35817109467462,195.13409336213954 158.01522395852953,193.54591225250624 157.21501397248358,192.4871237684274 156.18617256265134,191.69303183897864 154.8143840157427,191.1636369500775 152.98533262033015,191.1636369500775 151.6135440734215,191.69303183897864 150.47038695029914,192.4871237684274 149.78449267800897,193.678260752582 149.4415455404669,196.32522792054806 149.4415455404669,200.4280163780786 149.4415455404669,204.53079188463744 149.78449267800897,207.17773695185315 150.47038695029914,208.36886047339067 152.52806977089494,209.95702347089536 153.8998583178036,210.22171711560804 155.0430154404603,209.95702347089536 156.07185684982687,209.55998290353455 156.98638254823163,208.63355444115587 158.24385538231581,205.986612338922 158.35817109467462,202.01618907775264 158.35817109467462,198.04575368890073 158.35817109467462,195.53113833605312 157.90090824570507,193.678260752582 156.64343541115522,192.09007786447182 155.38596257660538,191.4283344213618 154.24280545488,191.1636369500775 152.8710169075057,191.29598569252994 151.49922836059704,191.8253805276472 150.47038695029914,192.75182097032666 149.6701769651845,193.94295771198813 149.4415455404669,195.0017450102605 149.4415455404669,199.1045376455877 149.32722982857376,201.75149376282934 149.5558612528257,204.66313926596195 149.5558612528257,205.986612338922 149.78449267800897,207.3100840637926 150.47038695029914,208.5012074642582 152.7567011951469,209.95702347089536 154.12848974205554,210.089370300062 155.38596257660538,209.8246766286902 157.10069826012477,208.36886047339067 157.67227682145312,207.44243116211146 158.24385538231581,204.66313926596195 158.35817109467462,200.95740749384277 158.35817109467462,196.45757613773458 158.24385538231581,195.13409336213954 157.90090824570507,193.81060923915356 157.21501397248358,192.6194723759545 156.18617256265134,191.8253805276472 153.44259546883404,191.1636369500775 152.1851226342842,191.4283344213618 151.04196551209316,192.22242651251145 150.01312410226092,193.14886667206883 149.5558612528257,194.20765461749397 149.4415455404669,198.31044975912664 149.6701769651845,201.22210297046695 149.4415455404669,202.41323195013683 149.5558612528257,206.64834836986847 150.01312410226092,207.83947237650864 151.84217549767345,209.55998290353455 153.09964833175763,210.089370300062 155.38596257660538,209.8246766286902 157.32932968437672,208.36886047339067 157.78659253381193,207.44243116211146 158.35817109467462,204.00140222453047 158.24385538231581,202.67792713083327 158.47248680749908,198.57514577487018 158.47248680749908,195.7958349181572 158.24385538231581,194.47235146875028 157.55796110955998,193.14886667206883 156.87206683587283,192.22242651251145 154.35712116630748,191.1636369500775 151.72785978531465,191.69303183897864 150.5847026631236,192.4871237684274 149.89880838943645,193.54591225250624 149.4415455404669,196.32522792054806 149.4415455404669,200.4280163780786 149.5558612528257,204.13374965975527 149.6701769651845,206.91304268792737 150.12743981415406,208.1041664518416 151.84217549767345,209.6923297730973 152.7567011951469,210.089370300062 153.8998583178036,210.22171711560804 155.15733115235344,209.95702347089536 156.07185684982687,209.42763602093328 156.98638254823163,208.5012074642582 158.12953967042267,206.38365399756003 158.35817109467462,202.41323195013683 158.24385538231581,198.31044975912664 158.24385538231581,195.92818318877835 158.12953967042267,194.47235146875028 157.78659253381193,193.41356373927556 156.87206683587283,192.22242651251145 155.8432254260406,191.56068313703872 154.47143687866628,191.29598569252994 153.2139640445821,191.1636369500775 151.95649121003225,191.56068313703872 150.6990183754824,192.22242651251145 150.01312410226092,193.28121521219146 149.6701769651845,194.60469987452962 149.4415455404669,198.83984173706267 149.4415455404669,202.94262225704733 149.78449267800897,207.3100840637926 151.04196551209316,209.29528912494425 153.44259546883404,210.089370300062 154.8143840157427,210.089370300062 155.9575411383994,209.55998290353455 156.98638254823163,208.76590140501503 157.78659253381193,207.70712531846948 158.12953967042267,206.38365399756003 158.47248680749908,203.73670731321909 158.47248680749908,199.63392930012196 158.35817109467462,195.53113833605312 158.12953967042267,194.20765461749397 157.44364539720118,193.01651811844204 156.52911969926208,192.09007786447182 155.38596257660538,191.4283344213618 153.67122689355165,191.03128819400445 151.84217549767345,191.56068313703872 150.35607123887166,192.6194723759545 149.4415455404669,194.47235146875028 149.32722982857376,198.70749376295134 149.5558612528257,202.81027470028494 149.4415455404669,204.39844449027441 149.21291411621496,205.4572232712526 149.21291411621496,206.51600119052455 151.1562812239863,209.8246766286902 151.49922836059704,210.88345099042635 152.29943834617734,211.28049115347676 154.47143687866628,211.28049115347676 142.12533995788544,214.58915446372703 142.12533995788544,215.7802711938275 141.8967085336335,216.57434840756468 141.8967085336335,219.48596070695203 142.23965567024425,221.47114717168733 142.01102424506098,224.91212986211758 140.7535514109768,226.76496292219963 138.00997431762516,229.1471729760524 137.09544861968607,229.8088972165715 136.40955434553325,230.60296586027835 135.83797578467056,230.86765529995319 133.09439869131893,229.67655239568558 131.9512415691279,228.88248318608385 128.75040162634104,227.02965314418543 125.32093025976792,225.57385625806637 123.03461601492018,224.64743920927867 119.71946035977453,222.79460313066375 116.86156755452976,221.20645581849385 116.40430470556021,220.80941868713126 115.71841043187305,220.54472719866317 112.06030764104798,217.633117271238 109.77399339573458,217.1037329470273 106.45883774058893,215.1185398120433 103.48662922345102,212.86865059367847 100.28578928066418,210.22171711560804 97.31358076259494,207.83947237650864 96.2847393527627,207.3100840637926 93.5411622589454,204.66313926596195 91.94074228778481,202.81027470028494 88.73990234546363,200.4280163780786 85.88200953928754,198.4427977737505 83.9386424315162,196.98696887027472 83.1384324459359,196.1928796900902 80.62348677683622,194.20765461749397 79.48032965417951,192.88416955119465 76.39380542421713,190.50189303525258 74.67906974069774,189.31075314059854 73.4215969061479,187.9872630876489 72.39275549585,186.66377168742474 68.7346527040936,183.09033817437012 67.47717987000942,182.296240504249 66.10539132263511,181.76684178761207 63.13318280456588,178.98749498848338 61.76139425812289,177.26694399153348 58.67487002769485,174.61993801034987 56.96013434417546,173.03173183347099 56.61718720803037,172.2376280176686 55.93129293434322,171.57587446714751 55.702661510091275,171.0464713841211 54.44518867507577,169.9876645707991 52.84476870391518,166.28183393226936 51.01571730803698,162.31128937902395 50.32982303481549,160.32601255411282 49.7582444739528,156.22309750528075 48.958034488372505,152.25252222188283 48.7294030636549,150.66428871196695 49.072350200265646,149.4731123058591 48.8437187760137,146.56134316127282 48.386455927509815,145.50251640041824 47.929193078074604,140.87013917858712 47.58624594146386,137.03187125723343 47.24329880438745,136.10539109492674 47.014667380135506,132.66417328175157 46.67172024352476,128.29646062699612 46.328773106914014,124.45815556985326 45.871510257944465,120.75219510227907 45.871510257944465,118.36978636367712 45.52856312133372,114.26673885365017 45.18561598472297,110.69310627353843 44.72835313575342,109.23717907152604 45.18561598472297,106.5900345252594 44.61403742292896,104.60467257699929 43.69951172545552,100.36922361585312 43.356564588844776,96.00140241638292 43.242248876485974,92.1630019696895 42.67067031515762,88.1922309556976 42.44203889090568,83.1625702525489 42.55635460326448,80.64773260022048 42.327723178546876,76.14748465444427 41.87046033004299,74.2944368525641 41.52751319296658,72.04430382605642 41.52751319296658,72.04430382605642" stroke="#4DD2FF" stroke-linecap="round" stroke-linejoin="round" stroke-width="0.5"><title>2025-02-13 7.6km</title><desc>9223370297406245007</desc></polyline></svg>