<?xml version="1.0" encoding="utf-8" ?>
<svg baseProfile="full" height="300mm" version="1.1" viewBox="0,0,200,300" width="200mm" xmlns="http://www.w3.org/2000/svg" xmlns:ev="http://www.w3.org/2001/xml-events" xmlns:xlink="http://www.w3.org/1999/xlink"><defs /><rect fill="#222222" height="300" width="200" x="0" y="0" /><text fill="#FFFFFF" style="font-size:12px; font-family:Arial; font-weight:bold;" x="10" y="20">Over 3km Runs</text><text fill="#FFFFFF" style="font-size:4px; font-family:Arial" x="10" y="280">ATHLETE</text><text fill="#FFFFFF" style="font-size:9px; font-family:Arial" x="10" y="290">Alex</text><text fill="#FFFFFF" style="font-size:4px; font-family:Arial" x="65" y="280">SPECIAL TRACKS</text><rect fill="yellow" height="2.6" width="2.6" x="65" y="283" /><text fill="#FFFFFF" style="font-size:3px; font-family:Arial" x="70" y="285.5">Over 20.0 km</text><rect fill="red" height="2.6" width="2.6" x="65" y="287" /><text fill="#FFFFFF" style="font-size:3px; font-family:Arial" x="70" y="289.5">Over 40.0 km</text><text fill="#FFFFFF" style="font-size:4px; font-family:Arial" x="120" y="280">STATISTICS</text><text fill="#FFFFFF" style="font-size:3px; font-family:Arial" x="120" y="285">Number: 4</text><text fill="#FFFFFF" style="font-size:3px; font-family:Arial" x="120" y="290">Weekly: 1.0</text><text fill="#FFFFFF" style="font-size:3px; font-family:Arial" x="141" y="285">Total: 31.8 km</text><text fill="#FFFFFF" style="font-size:3px; font-family:Arial" x="141" y="290">Avg: 8.0 km</text><text fill="#FFFFFF" style="font-size:3px; font-family:Arial" x="167" y="285">Min: 5.3 km</text><text fill="#FFFFFF" style="font-size:3px; font-family:Arial" x="167" y="290">Max: 10.0 km</text><polyline fill="none" points="114.5253748523537,35.69850250741001 113.91649123304524,36.967502899933606 113.85560287092812,38.800499359262176 114.22093304246664,40.98598879337078 114.5253748523537,43.594467148475815 114.64715157612227,47.61291456542676 114.82981666177511,50.36236514488701 115.56047700508498,53.534794550039805 118.17867656843737,53.67579107475467 118.36134165409021,53.6052928158897 116.04758390062489,54.098780477419496 115.9258071766235,55.93173156800913 115.62136536696926,58.11716690886533 116.23024898627773,61.64204807992792 116.47380243404768,65.73088775074575 116.71735588181764,66.85883927124087 116.90002096747048,68.76225329434965 117.08268605335616,69.89019987551728 117.32623950135894,71.65261272859061 117.38712786301039,74.19047935382696 117.5697929491289,75.60040123626823 117.93512312043458,79.05469771154458 118.05689984443597,81.73352800874272 118.60489510162733,84.62383328157011 120.06621578824706,88.57154781528516 121.28398302686401,90.40440762479557 122.258196817711,89.41748371493304 123.23241060879081,89.06501054915134 121.64931319863535,91.17984685243573 122.56263862736523,92.30775690596784 124.32840112340637,94.14060682314448 127.00748904864304,96.39641544444021 128.04259120160714,96.74888487759745 129.1994700783398,95.90295793663245 131.452339469688,94.14060682314448 130.78256748849526,94.6340655873646 128.22525628725998,96.6783910052618 127.06837741052732,96.53740323934471 125.97238689567894,95.409500077134 129.1994700783398,98.15876081533497 131.26967438380234,100.13258230430074 134.4967575664632,102.81133103795582 137.1758454912342,105.13760442403145 139.3069381590467,106.61795614525909 141.80336099863052,108.94421674025944 145.09133254294284,111.69342372973915 147.28331357240677,113.17376143287402 150.44950839295052,115.5 152.5197126986459,113.73769877303857 154.52902864245698,110.84751504968153 156.23390277684666,108.59175351628801 158.73032561596483,105.41957642440684 159.8263161308132,104.64415314688813 161.53119026497006,105.41957642440684 164.02761310432106,106.61795614525909 166.6458126672078,108.30978280777344 168.95957042067312,110.91800747904927 169.93378421198577,111.12948472466087 171.8822117934469,111.12948472466087 173.64797428948805,111.90490073838737 174.9266298902221,111.69342372973915 175.90084368130192,110.63603771815542 176.2661738526076,108.02781198447337 176.20528549095616,103.8687290007947 175.23107169987634,102.24738479760708 174.0133044612594,101.82442481577164 171.8822117934469,102.88182428566506 171.51688162214123,106.47697040357161 171.45599326002412,107.8163337916485 171.8822117934469,110.63603771815542 173.28264411794953,111.83440840936964 175.65729023353197,111.05899231653893 176.2661738526076,108.52126084989868 176.14439712907188,105.91302714904305 176.14439712907188,103.58675636857515 175.17018333775923,102.17689148517093 173.22175575629808,101.82442481577164 172.0648768793326,102.52935797517421 171.51688162214123,103.79823585337726 171.6386583459098,107.95731926063308 171.6386583459098,109.3671723723528 171.8822117934469,110.63603771815542 172.79553722240962,111.62293137930101 174.50041135656647,111.83440840936964 175.90084368130192,110.56554525985848 176.20528549095616,107.88682652992429 176.20528549095616,104.08020839933306 175.90084368130192,102.81133103795582 174.19596954691224,101.82442481577164 172.36931868898682,102.31787810276728 171.57776998379268,104.00971527368529 171.6386583459098,105.98352008103393 171.6386583459098,107.39337721210904 171.6386583459098,110.00160533603048 173.22175575629808,111.76391607295955 174.865741528105,111.62293137930101 176.20528549095616,109.6491426503053 176.2661738526076,105.84253420983441 176.02262040483765,103.16379720508121 174.0133044612594,101.75393146037823 172.73464886052534,102.10639816569164 171.82132343179546,103.02281075966312 171.6386583459098,105.5605623818119 171.6386583459098,109.29667978495127 171.76043506967835,110.56554525985848 173.46530920360237,111.76391607295955 174.68307644245215,111.69342372973915 175.9617320431862,110.49505279463483 176.2661738526076,107.8163337916485 176.14439712907188,103.44577000942081 175.4746251476463,102.38837140065152 174.4395229946822,101.82442481577164 173.16086739418097,101.8949181639473 171.82132343179546,103.02281075966312 171.57776998379268,105.41957642440684 171.6386583459098,109.43766495259479 171.8822117934469,110.63603771815542 173.34353248006664,111.76391607295955 175.04840661399066,111.55243902147049 176.08350876695476,110.2130828613881 176.2661738526076,106.40647752193036 176.14439712907188,103.44577000942081 174.50041135656647,101.82442481577164 173.22175575629808,101.8949181639473 172.0648768793326,102.67034452105872 171.57776998379268,104.00971527368529 171.6386583459098,108.3802754956414 171.8822117934469,110.4245603219606 172.73464886052534,111.34096190537093 174.0741928233765,111.76391607295955 175.23107169987634,111.48194665671326 176.2661738526076,109.71963520173449 176.2661738526076,104.85563230869593 175.90084368130192,102.88182428566506 174.865741528105,101.96541150507983 173.5870859278366,101.75393146037823 172.36931868898682,102.38837140065152 171.6386583459098,103.51626319251955 171.57776998379268,107.4638699934003 172.18665360310115,110.98849990149029 173.95241609914228,111.83440840936964 175.77906695730053,110.98849990149029 176.32706221472472,108.52126084989868 176.2661738526076,104.15070151805412 175.8399553191848,102.81133103795582 174.62218808056787,101.82442481577164 173.16086739418097,101.8949181639473 171.69954670779407,103.30478362151189 171.6386583459098,107.4638699934003 171.6386583459098,109.50815752556082 172.24754196498543,110.98849990149029 173.46530920360237,111.69342372973915 175.17018333775923,111.55243902147049 176.20528549095616,109.93111281318124 176.2661738526076,106.68844900547992 176.08350876695476,103.44577000942081 175.53551350929774,102.31787810276728 174.31774627091363,101.75393146037823 173.0390906704124,101.8949181639473 171.69954670779407,103.23429041693453 171.6386583459098,106.54746327799512 171.69954670779407,108.3802754956414 171.82132343179546,110.35406784230145 173.09997903206386,111.69342372973915 174.9266298902221,111.62293137930101 176.02262040483765,110.49505279463483 176.2661738526076,106.82943470426835 176.2661738526076,103.8687290007947 175.77906695730053,102.59985125175444 174.62218808056787,101.82442481577164 172.49109541298822,102.17689148517093 171.69954670779407,105.63105534948409 171.6386583459098,109.43766495259479 172.30843032710254,111.19997712533223 174.62218808056787,111.83440840936964 176.14439712907188,110.35406784230145 176.32706221472472,106.12450592324603 175.9617320431862,102.95231752633117 174.98751825210638,101.96541150507983 172.917313946411,101.96541150507983 171.82132343179546,102.88182428566506 171.69954670779407,105.70154831005493 171.69954670779407,108.3802754956414 171.69954670779407,109.71963520173449 172.79553722240962,111.41145428473828 174.74396480456926,111.69342372973915 175.77906695730053,110.77702261292143 176.387950576609,108.59175351628801 176.2661738526076,104.57366007874953 176.20528549095616,103.23429041693453 173.89152773749083,101.68343809770886 172.49109541298822,102.10639816569164 171.6386583459098,103.37527681916254 171.57776998379268,106.33598463278031 171.57776998379268,108.94421674025944 172.18665360310115,111.05899231653893 173.40442084195092,111.69342372973915 175.04840661399066,111.62293137930101 176.20528549095616,109.93111281318124 176.387950576609,106.26549173687818 176.14439712907188,103.23429041693453 175.29196006199345,102.0359048388782 173.95241609914228,101.68343809770886 172.0648768793326,102.52935797517421 171.57776998379268,104.00971527368529 171.57776998379268,108.3802754956414 171.8822117934469,110.49505279463483 173.46530920360237,111.76391607295955 175.23107169987634,111.48194665671326 176.2661738526076,109.22618719050661 176.20528549095616,104.15070151805412 175.29196006199345,102.10639816569164 173.0390906704124,101.75393146037823 171.51688162214123,103.58675636857515 171.51688162214123,105.49006940668914 171.69954670779407,107.32288442377467 171.57776998379268,109.71963520173449 171.33421653602272,110.56554525985848 169.81200748775154,111.19997712533223 168.22891007759608,110.00160533603048 167.0111428387463,108.30978280777344 164.81916180928238,107.11140601552324 162.44451569393277,105.41957642440684 160.8614182837773,104.50316700310213 158.8521023397334,105.13760442403145 156.8427863959223,107.67534829385113 155.68590751942247,109.57865009154193 152.94593123253435,113.03277702629566 150.93661528849043,115.35901606705738 149.29262951621786,114.72458801296307 147.77042046794668,113.45573016058188 145.6393278001342,112.11637768236687 143.44734677043743,110.49505279463483 141.31625410332344,108.80323147244053 140.4638170360122,107.53436276718276 138.15005928254686,105.98352008103393 134.67942265234888,103.02281075966312 131.63500455534086,100.34406284440774 130.5390140407253,99.14567226334475 127.79903775360435,96.81937874259893 125.48528000037186,94.77505374106113 122.31908517982811,91.9552852116758 120.85776449344121,89.91094584582606 119.03111363528296,86.03373391384957 118.3004532919731,82.15650026599178 117.99601148231886,80.04163639555918 118.48311837785877,78.98420203733258 117.93512312043458,77.22180785081582 117.4480162251275,74.6839523393428 117.08268605335616,71.93459836870898 116.77824424393475,69.96069647569675 116.53469079593197,65.73088775074575 116.29113734839484,63.26348739117384 116.23024898627773,62.135530011495575 115.68225372908637,57.97617128863931 115.56047700508498,54.6627659452497 115.0733701097779,51.56084018468391 114.89070502389222,48.247404130059294 114.4644864902366,47.04892335284967 114.5253748523537,43.876464219531044 114.22093304246664,39.78749544220045 113.79471450904384,37.03800285368925 113.67293778527528,34.5 113.91649123304524,36.7560029962915" stroke="#4DD2FF" stroke-linecap="round" stroke-linejoin="round" stroke-width="0.5"><title>2025-02-24 10.0km</title><desc>9223370296456671807</desc></polyline><polyline fill="none" points="26.952748283511028,184.5 26.38210226711817,184.63214526732918 25.982650055317208,185.02858090790687 25.75439164880663,184.96250831783982 25.811456250492483,187.40718966245186 26.210908462060615,190.3804383398965 26.153843860141933,193.94831876340322 26.496231470257044,197.45010824420024 26.72448987700045,199.4322448547464 27.123942088568583,200.29116883844836 27.580458901822567,202.40543841436738 27.466329698450863,206.50181610824075 27.69458810519427,207.95536326564616 27.922846511704847,212.18384556809906 28.37936332519166,214.89270255918382 28.493492528563365,216.21409210859565 28.721750935073942,219.12113964324817 29.23533235024661,223.08527437917655 29.406526154838502,225.1994696672773 29.863042968325317,228.23861332348315 30.66194739146158,231.54201419325545 31.803239424712956,233.98652000818402 33.00159605965018,235.63820791244507 35.17005092278123,238.21483264648123 36.368407557485625,238.94157110602828 38.13741020904854,240.6593133196584 39.05044383578934,240.46111252729315 40.41999427555129,242.11278394854162 43.10203055362217,245.0857819110388 45.44167922181077,247.13383924931986 46.98242346663028,248.52122925705044 48.92261992325075,249.71041833114577 51.14813938783482,251.6263294770033 54.62908008904196,254.59928384743398 57.08285796060227,256.8455070044729 59.650765035068616,258.43107161019 61.64802609337494,259.62024252169067 63.58822254976258,260.7433463812922 66.72677564132027,262.4610308771371 69.35174731747247,263.5841298198211 70.60716855409555,264.24477534840116 72.8897526205983,265.5 75.45765969529748,263.5180652298732 76.08537031337619,260.2808920862153 76.08537031337619,255.92059252865147 76.14243491529487,254.79748032131465 77.9685021683108,254.46715283155208 79.79456942155957,254.40108731325017 82.02008888637647,255.06174219190143 83.27551012276672,254.46715283155208 84.07441454613581,251.89059263915988 83.90322074107826,247.72843533020932 83.33257472445257,246.27497728163144 81.33531366637908,245.61431345599703 80.13695703167468,246.27497728163144 79.50924641313031,248.85155977407703 79.566311015049,252.94764421216678 80.02282782807015,254.26895625673933 81.10705525963567,254.99567673436832 82.5336703013163,254.92961127014132 83.84615613915958,253.60830057098065 83.96028534276411,251.56026366946753 83.90322074107826,249.77648432686692 83.90322074107826,247.06777298462112 82.41954109771177,245.6803798689507 80.42228003987111,246.01071183220483 79.62337561673485,247.06777298462112 79.50924641313031,250.6353416594211 79.50924641313031,253.34403810818912 80.25108623481356,254.46715283155208 82.13421808951534,255.06174219190143 83.27551012276672,254.53321834286908 83.96028534276411,252.88157853938174 83.96028534276411,248.7854936842341 83.67496233433485,246.73744155932218 82.13421808951534,245.5482470364077 80.70760304830037,245.8125126743107 79.73750481987372,246.80350785789778 79.45218181144446,249.97468227369245 79.62337561673485,253.34403810818912 80.30815083626658,254.40108731325017 82.02008888637647,254.99567673436832 82.81899330974557,254.79748032131465 83.90322074107826,253.01370987843256 83.90322074107826,251.75846107158577 83.96028534276411,247.92663390288362 83.16138091962785,246.14284457045142 81.33531366637908,245.6803798689507 80.07989242998883,246.20891092944657 79.50924641313031,249.38008825137513 79.62337561673485,253.14584119047504 80.30815083626658,254.46715283155208 81.39237826806493,254.99567673436832 82.70486410637386,254.86354579898762 83.56083313096315,254.00469406321645 83.96028534276411,251.42813203466358 83.84615613915958,247.3981042415253 83.33257472445257,246.27497728163144 81.67770127649419,245.5482470364077 80.47934464132413,245.8785790670081 79.68044021818787,246.93564043473452 79.566311015049,248.85155977407703 79.566311015049,252.48518436093582 80.1940216331277,254.26895625673933 81.96302428469062,254.99567673436832 83.04725171602331,254.59928384743398 83.78909153793938,253.60830057098065 83.90322074107826,249.77648432686692 83.84615613915958,247.26597175886855 83.27551012276672,246.14284457045142 82.19128269143403,245.61431345599703 80.87879685289226,245.6803798689507 79.566311015049,247.3981042415253 79.566311015049,249.97468227369245 79.566311015049,253.27797247556737 80.76466764975339,254.79748032131465 82.59073490276933,254.92961127014132 83.50376852974296,254.00469406321645 83.84615613915958,250.89960522553883 83.90322074107826,247.59630291489884 83.2184455213137,246.07677820458775 81.73476587794721,245.5482470364077 80.47934464132413,245.8785790670081 79.62337561673485,246.93564043473452 79.566311015049,249.64435232873075 79.62337561673485,253.54223496536724 80.36521543818526,254.46715283155208 81.56357207312249,254.99567673436832 82.76192870782688,254.86354579898762 83.73202693625353,253.47616935300175 83.84615613915958,249.31402221525786 83.61789773288183,246.6713752541691 82.13421808951534,245.4821806101245 80.30815083626658,246.01071183220483 79.50924641313031,247.06777298462112 79.566311015049,250.83353934402112 79.62337561673485,253.54223496536724 80.93586145481095,254.79748032131465 82.64779950468801,254.86354579898762 83.67496233433485,253.67436616972554 83.96028534276411,250.83353934402112 83.90322074107826,247.99270008015446 82.76192870782688,245.74644627497764 80.93586145481095,245.5482470364077 79.62337561673485,246.93564043473452 79.566311015049,250.76747345604235 79.62337561673485,253.27797247556737 80.47934464132413,254.59928384743398 81.56357207312249,254.99567673436832 82.76192870782688,254.79748032131465 83.78909153793938,253.47616935300175 83.84615613915958,249.71041833114577 83.73202693625353,247.06777298462112 82.07715348806232,245.4821806101245 80.07989242998883,246.14284457045142 79.50924641313031,247.66236912604654 79.62337561673485,251.89059263915988 79.90869862493128,253.872562926088 81.84889508131891,255.06174219190143 83.33257472445257,254.2028907185304 83.90322074107826,253.27797247556737 83.84615613915958,250.0407482428127 83.78909153793938,248.85155977407703 83.56083313096315,246.40710996603593 81.2782490644604,245.4821806101245 79.68044021818787,246.6713752541691 79.566311015049,251.1638686839142 79.566311015049,253.07977553788805 80.82173225143924,254.7314148368896 82.36247649625875,254.99567673436832 83.84615613915958,253.34403810818912 83.90322074107826,251.75846107158577 83.90322074107826,249.11582406650996 83.56083313096315,246.40710996603593 82.19128269143403,245.4821806101245 80.42228003987111,245.8125126743107 79.566311015049,247.19990550755756 79.62337561673485,251.75846107158577 79.50924641313031,252.8155128597282 80.82173225143924,254.79748032131465 82.3054118945729,254.92961127014132 83.78909153793938,253.60830057098065 84.07441454613581,249.71041833114577 84.30267295264639,248.3230308663915 84.18854374950752,246.6713752541691 76.02830571192317,254.13682517339475 76.08537031337619,255.78846178180538 75.97124111023732,256.7133764459286 76.08537031337619,258.2328762463294 75.74298270349391,262.32890146196587 74.25930306059308,264.04658176057274 73.40333403553814,264.70722681842744 72.60442961240187,265.4339356053388 69.06642430904321,263.25380680308444 65.41428980301134,261.60218919743784 63.30289954156615,260.47908682445996 61.47683228831738,259.1577874260256 59.251312823733315,258.2328762463294 56.283953537233174,255.52420020697173 54.11549867410213,254.2028907185304 51.20520398928784,251.956658412877 48.97968452470377,249.84255031583598 47.55306948325597,248.65336148400092 45.498743823263794,247.33203800348565 44.69983940012753,246.27497728163144 42.873772146878764,244.5572499355767 39.44989604712464,241.58424955117516 37.90915180253796,240.52717946469784 34.94179251603782,237.75236229388975 32.60214384808205,235.17573572311085 31.175528806634247,232.7312343888916 30.091301374835894,229.6260437372839 29.34946155338548,225.4637435938348 29.577719959896058,224.2084414839046 28.95000934181735,221.8299676668248 28.66468633362092,217.86582526029088 28.493492528563365,216.54443907539826 28.208169520366937,214.2980763836531 27.865781910251826,210.26781793974806 27.580458901822567,208.81427596404683 27.238071291940287,204.12327737087617 27.40926509676501,202.009013393661 27.066877487115562,200.62152391386917 26.72448987700045,199.63045818271348" stroke="#4DD2FF" stroke-linecap="round" stroke-linejoin="round" stroke-width="0.5"><title>2025-02-17 8.9km</title><desc>9223370297062089807</desc></polyline><polyline fill="none" points="116.39249301375821,184.5 115.99238802096806,184.76472232787637 115.70659874030389,186.6177756038378 116.04954587714747,188.07374232722213 116.04954587714747,189.3973456080421 116.22101944545284,191.5151052486617 116.04954587714747,193.10342044901336 116.27817730163224,193.8313969518058 116.39249301375821,195.8829627071973 116.62112443824299,198.00070120819146 116.50680872588418,198.79485136648873 116.62112443824299,199.45664242364 117.19270299933851,200.31696979037952 117.24986085575074,200.18461180792656 117.24986085575074,200.25079080247087 117.70712370425463,202.83176633011317 117.30701871146448,204.4862324297428 117.47849228023551,205.2803746612626 117.64996584830806,206.73629956471268 117.99291298515163,208.12604302039836 118.164386553457,210.37609755113954 118.164386553457,212.29525555262808 118.164386553457,213.6849871186423 118.39301797817461,214.41294056229526 118.62164940219373,216.5967960000271 118.7359651143197,217.39092343044467 118.7359651143197,218.05269554746337 118.9074386828579,218.6482898768736 118.79312297073193,219.3100607134984 119.07891225116327,221.3615460244473 119.36470153182745,223.61155472451355 119.42185938800685,225.6630264550913 119.47901724418625,226.52331912447698 119.9934379493352,228.70713386218995 120.22206937335432,230.1630062770564 120.90796364704147,231.9497543281177 121.87964720092714,233.93502417835407 122.67985718650743,235.06000773486448 123.02280432311818,235.65558647620492 124.22311930172145,237.24379378475714 125.19480285560712,238.10407112294342 125.59490784839727,238.5672969102161 126.85238068317994,239.5599224854377 127.70974852493964,240.55254654429154 128.50995851051994,240.88342089380603 128.96722135948949,240.88342089380603 129.93890491360798,242.14074188505765 131.48216702835634,243.72893334453693 133.19690271210857,245.11859768774593 134.85448053944856,246.44208477559732 135.76900623738766,247.3685241334024 136.16911123041064,247.63322085002437 137.59805763303302,249.02287684445037 138.6268990430981,249.7507907032268 139.25563546060584,250.01548644993454 140.9703711438924,251.33896356541663 141.88489684159867,252.46391699422384 143.54247466893867,253.85356265923474 145.1428946403321,255.17703195865033 146.28605176252313,256.103458864789 148.17226101458073,257.22840404638555 149.77268098574132,258.3533472813433 150.5728909713216,258.48569341609254 152.57341593550518,259.742980353476 153.2021523527801,260.14001782843843 153.43078377726488,260.5370550608495 154.63109875563532,261.2649560235441 156.5173080074601,262.2575469313888 157.20320228068158,262.3898922712542 159.03225367655978,263.31630889570806 160.2897265108768,264.11037923698314 160.91846292861737,264.3088966708747 162.004462194629,265.10296579945134 163.1476193170529,265.5 163.43340859748423,264.9706210120348 164.11930287093855,264.63975892565213 164.4050921513699,264.3750691352179 165.03382856887765,264.17655172158265 165.54824927379377,263.6471716557862 165.66256498591974,263.2501363234478 165.89119641063735,262.98544596717693 166.2341435472481,263.0516185663291 166.4627749719657,262.7869281290332 166.40561711555347,261.6619925685227 166.57709068409167,260.66940075095044 166.57709068409167,259.875326205336 166.69140639621764,259.47828856878914 166.2913014034275,258.28717420378234 166.40561711555347,256.500498562993 166.51993282767944,255.8387655976112 168.0631949431263,254.77999145176727 168.63477350398898,254.44912417751038 169.03487849701196,254.31677722057793 169.5492992021609,253.58886847592657 170.00656205113046,254.2506037321291 170.69245632435195,254.71381801046664 171.37835059757344,254.97851173544768 172.6358234321233,255.044685150031 173.20740199345164,254.64764456247212 173.95045412285253,253.6550420318963 174.1219276911579,251.80217991879908 174.1790855473373,250.01548644993454 174.1790855473373,248.16261396027403 174.1790855473373,247.56704668106977 174.00761197926477,246.90530461957678 173.7218226986006,246.30973618797725 173.15024413727224,245.78034156851936 172.52150772023015,245.51564409700222 171.77845559059642,245.44946971227182 171.0354034609627,245.64799284626497 170.46382489986718,246.0450389322359 169.94940419471823,246.64060760609573 169.72077277023345,247.3685241334024 169.72077277023345,249.48609484906774 169.72077277023345,251.53748490021098 169.66361491428688,253.0594797859667 169.83508848259225,253.72121558105573 170.23519347514957,254.31677722057793 170.69245632435195,254.71381801046664 171.8927713027224,255.044685150031 172.52150772023015,255.044685150031 173.03592842491344,254.71381801046664 173.49319127411582,254.31677722057793 173.83613841072656,253.7873891236377 174.06476983521134,253.19182699878002 174.1219276911579,251.07426835782826 174.2934012596961,249.02287684445037 174.23624340374954,247.76556916802656 174.1219276911579,247.03765308560105 173.83613841072656,246.50825905922102 173.26455984963104,245.9788646012894 172.7501391444821,245.58181847503874 172.0070870150812,245.51564409700222 171.37835059757344,245.58181847503874 170.69245632435195,245.9126902638236 170.17803561943583,246.30973618797725 169.8922463390045,246.97147885599406 169.72077277023345,247.63322085002437 169.72077277023345,249.88313858996844 169.83508848259225,250.41252986749168 169.72077277023345,251.14044216973707 169.72077277023345,253.19182699878002 169.94940419471823,253.91973618825432 170.4066670439206,254.38295070250751 171.0354034609627,254.77999145176727 171.60698202229105,255.044685150031 172.29287629574537,255.044685150031 172.86445485660806,254.9123383143451 173.7218226986006,253.9859097104636 174.00761197926477,253.3903477677377 174.1219276911579,251.20661597506842 174.1790855473373,249.0890508653829 174.1790855473373,247.69939501245972 174.06476983521134,246.97147885599406 173.66466484218836,246.30973618797725 173.20740199345164,245.84651591948932 172.52150772023015,245.64799284626497 171.83561344677582,245.58181847503874 171.14971917308867,245.7141672106809 170.46382489986718,246.11121325625572 169.94940419471823,246.90530461957678 169.72077277023345,248.3611362653901 169.72077277023345,250.54487761924975 169.77793062641285,252.7286116356263 169.83508848259225,253.4565213439637 170.06371990707703,254.0520832259208 170.52098275604658,254.51529764576117 171.14971917308867,254.84616488654865 171.77845559059642,254.97851173544768 172.46434986405075,254.97851173544768 172.9787705691997,254.77999145176727 173.43603341793641,254.31677722057793 173.77898055478,253.85356265923474 174.06476983521134,253.1256533957203 174.1790855473373,252.39774331694935 174.1790855473373,250.3463559814263 174.1790855473373,248.2287880688673 174.1790855473373,247.56704668106977 174.00761197926477,246.77295612625312 173.6075069862418,246.2435618842137 173.09308628132567,245.84651591948932 172.40719200787134,245.58181847503874 171.49266631016508,245.58181847503874 170.80677203671075,245.84651591948932 170.23519347514957,246.2435618842137 169.8922463390045,246.839130376291 169.72077277023345,248.16261396027403 169.72077277023345,250.2140081890393 169.72077277023345,252.26539594231872 169.8922463390045,253.58886847592657 170.23519347514957,254.18443023669533 171.26403488544747,254.97851173544768 171.9499291589018,255.11085855780402 172.52150772023015,254.97851173544768 173.03592842491344,254.77999145176727 173.49319127411582,254.31677722057793 174.1219276911579,252.993306169461 174.1790855473373,251.00809453887632 174.1790855473373,249.02287684445037 174.1790855473373,247.76556916802656 173.95045412285253,246.839130376291 173.3217177055776,246.0450389322359 172.6929812883027,245.7141672106809 172.12140272744,245.58181847503874 171.43550845375285,245.64799284626497 170.74961418029852,245.9126902638236 170.23519347514957,246.37591048516333 169.83508848259225,246.97147885599406 169.72077277023345,247.50087250513025 169.72077277023345,249.55226882279385 169.66361491428688,250.87574688141467 169.77793062641285,252.33156963298097 169.77793062641285,252.993306169461 169.8922463390045,253.6550420318963 170.23519347514957,254.2506037321291 171.37835059757344,254.97851173544768 172.06424487102777,255.044685150031 172.6929812883027,254.9123383143451 173.5503491300624,254.18443023669533 173.83613841072656,253.72121558105573 174.1219276911579,252.33156963298097 174.1790855473373,250.47870374692138 174.1790855473373,248.2287880688673 174.1219276911579,247.56704668106977 173.95045412285253,246.90530461957678 173.6075069862418,246.30973618797725 173.09308628132567,245.9126902638236 171.72129773441702,245.58181847503874 171.0925613171421,245.7141672106809 170.52098275604658,246.11121325625572 170.00656205113046,246.57443333603442 169.77793062641285,247.103827308747 169.72077277023345,249.15522487956332 169.83508848259225,250.61105148523347 169.72077277023345,251.20661597506842 169.77793062641285,253.32417418493424 170.00656205113046,253.91973618825432 170.92108774883673,254.77999145176727 171.54982416587882,255.044685150031 172.6929812883027,254.9123383143451 173.66466484218836,254.18443023669533 173.89329626690596,253.72121558105573 174.1790855473373,252.00070111226523 174.1219276911579,251.33896356541663 174.23624340374954,249.2875728874351 174.23624340374954,247.8979174590786 174.1219276911579,247.23617573437514 173.77898055478,246.57443333603442 173.43603341793641,246.11121325625572 172.17856058315374,245.58181847503874 170.86392989265732,245.84651591948932 170.2923513315618,246.2435618842137 169.94940419471823,246.77295612625312 169.72077277023345,248.16261396027403 169.72077277023345,250.2140081890393 169.77793062641285,252.06687482987763 169.83508848259225,253.4565213439637 170.06371990707703,254.0520832259208 170.92108774883673,254.84616488654865 171.37835059757344,255.044685150031 171.9499291589018,255.11085855780402 172.57866557617672,254.97851173544768 173.03592842491344,254.71381801046664 173.49319127411582,254.2506037321291 174.06476983521134,253.19182699878002 174.1790855473373,251.20661597506842 174.1219276911579,249.15522487956332 174.1219276911579,247.96409159438917 174.06476983521134,247.23617573437514 173.89329626690596,246.70678186963778 173.43603341793641,246.11121325625572 172.9216127130203,245.78034156851936 172.23571843933314,245.64799284626497 171.60698202229105,245.58181847503874 170.97824560501613,245.78034156851936 170.3495091877412,246.11121325625572 170.00656205113046,246.64060760609573 169.83508848259225,247.3023499372648 169.72077277023345,249.41992086853134 169.72077277023345,251.47131112852367 169.8922463390045,253.6550420318963 170.52098275604658,254.64764456247212 171.72129773441702,255.044685150031 172.40719200787134,255.044685150031 172.9787705691997,254.77999145176727 173.49319127411582,254.38295070250751 173.89329626690596,253.85356265923474 174.06476983521134,253.19182699878002 174.23624340374954,251.86835365660954 174.23624340374954,249.81696465006098 174.1790855473373,247.76556916802656 174.06476983521134,247.103827308747 173.7218226986006,246.50825905922102 173.26455984963104,246.0450389322359 172.6929812883027,245.7141672106809 171.83561344677582,245.51564409700222 170.92108774883673,245.78034156851936 170.17803561943583,246.30973618797725 169.72077277023345,247.23617573437514 169.66361491428688,249.35374688147567 169.77793062641285,251.40513735014247 169.72077277023345,252.1992222451372 169.60645705810748,252.7286116356263 169.60645705810748,253.25800059526227 170.57814061199315,254.9123383143451 170.74961418029852,255.44172549521318 171.14971917308867,255.64024557673838 172.23571843933314,255.64024557673838 166.06266997894272,257.2945772318635 166.06266997894272,257.89013559691375 165.94835426681675,258.28717420378234 165.94835426681675,259.742980353476 166.11982783512212,260.73557358584367 166.0055121225305,262.4560649310588 165.3767757054884,263.3824814610998 164.00498715881258,264.5735864880262 163.54772430984303,264.90444860828575 163.20477717276663,265.3014829301392 162.91898789233528,265.4338276499766 161.54719934565946,264.8382761978428 160.97562078456394,264.4412415930419 159.37520081317052,263.5148265720927 157.66046512988396,262.7869281290332 156.5173080074601,262.32371960463934 154.85973017988726,261.3973015653319 153.43078377726488,260.6032279092469 153.2021523527801,260.4047093435656 152.85920521593653,260.2723635993316 151.030153820524,258.816558635619 149.8869966978673,258.55186647351366 148.22941887029447,257.55926990602165 146.7433146117255,256.43432529683923 145.1428946403321,255.11085855780402 143.65679038129747,253.91973618825432 143.14236967638135,253.6550420318963 141.7705811294727,252.33156963298097 140.9703711438924,251.40513735014247 139.36995117273182,250.2140081890393 137.94100476964377,249.22139888687525 136.9693212157581,248.49348443513736 136.56921622296795,248.0964398450451 135.3117433884181,247.103827308747 134.74016482708976,246.44208477559732 133.19690271210857,245.2509465176263 132.33953487034887,244.65537657029927 131.71079845307395,243.99363154382445 131.196377747925,243.33188584371237 129.3673263520468,241.54516908718506 128.7385899350047,241.1481202521245 128.05269566131756,240.88342089380603 126.56659140228294,239.4937474942417 125.88069712906145,238.63347199576674 124.33743501384743,237.30996900517493 123.48006717208773,236.5158659167355 123.30859360401519,236.1188140088343 122.96564646717161,235.78793723357376 122.85133075504564,235.52323569206055 122.22259433753788,234.99383228539955 121.42238435195759,233.14091696613468 120.50785865401849,231.15564468951197 120.16491151740775,230.1630062770564 119.8791222369764,228.11154875264037 119.47901724418625,226.1262611109414 119.36470153182745,225.33214435598347 119.53617510013282,224.73655615292955 119.42185938800685,223.2806715806364 119.19322796375491,222.75125820020912 118.9645965390373,220.43506958929356 118.79312297073193,218.51593562861672 118.62164940219373,218.05269554746337 118.50733369006775,216.3320866408758 118.33586012176238,214.14823031349806 118.164386553457,212.22907778492663 117.93575512897223,210.37609755113954 117.93575512897223,209.18489318183856 117.76428156066686,207.13336942682508 117.59280799236149,205.34655313676922 117.36417656787671,204.61858953576302 117.59280799236149,203.2950172626297 117.30701871146448,202.30233628849965 116.84975586272776,200.18461180792656 116.67828229442239,198.00070120819146 116.62112443824299,196.08150098484475 116.33533515757881,194.0961154778488 116.22101944545284,191.58128512627445 116.27817730163224,190.32386630011024 116.16386158927344,188.07374232722213 115.9352301650215,187.14721842628205 115.76375659648329,186.0221519130282 115.76375659648329,186.0221519130282" stroke="#4DD2FF" stroke-linecap="round" stroke-linejoin="round" stroke-width="0.5"><title>2025-02-13 7.6km</title><desc>9223370297406245007</desc></polyline></svg>